<?xml version="1.0" encoding="UTF-8" standalone="no"?>
<svg
   xmlns:dc="http://purl.org/dc/elements/1.1/"
   xmlns:cc="http://creativecommons.org/ns#"
   xmlns:rdf="http://www.w3.org/1999/02/22-rdf-syntax-ns#"
   xmlns:svg="http://www.w3.org/2000/svg"
   xmlns="http://www.w3.org/2000/svg"
   xmlns:sodipodi="http://sodipodi.sourceforge.net/DTD/sodipodi-0.dtd"
   xmlns:inkscape="http://www.inkscape.org/namespaces/inkscape"
   viewBox="0 0 1065.06 1064.84"
   version="1.1"
   id="svg364"
   sodipodi:docname="logo_filled.svg"
   inkscape:version="0.92.4 5da689c313, 2019-01-14">
  <metadata
     id="metadata368">
    <rdf:RDF>
      <cc:Work
         rdf:about="">
        <dc:format>image/svg+xml</dc:format>
        <dc:type
           rdf:resource="http://purl.org/dc/dcmitype/StillImage" />
      </cc:Work>
    </rdf:RDF>
  </metadata>
  <sodipodi:namedview
     pagecolor="#ffffff"
     bordercolor="#666666"
     borderopacity="1"
     objecttolerance="10"
     gridtolerance="10"
     guidetolerance="10"
     inkscape:pageopacity="0"
     inkscape:pageshadow="2"
     inkscape:window-width="1920"
     inkscape:window-height="1024"
     id="namedview366"
     showgrid="false"
     inkscape:zoom="0.25"
     inkscape:cx="2151.3594"
     inkscape:cy="20.379901"
     inkscape:window-x="0"
     inkscape:window-y="30"
     inkscape:window-maximized="1"
     inkscape:current-layer="svg364" />
  <defs
     id="defs4">
    <style
       id="style2">.a7e91070-bc4e-4d7e-a1a4-375ce9b112ea{fill:#668362;}.e069c3a9-1290-428d-a99d-a7a75a876e99{fill:#cfdc96;}.ec5503ae-b2fc-4350-8cf0-207ea5f2789d{fill:#d7fc7e;}.e6e955ec-e082-4119-afd9-8e160ee00eeb{fill:#a7adf0;}.ffafc15d-45ce-401a-977b-63c6adf03024{fill:#57a4ff;}.bea5a0fc-33fd-4abe-9c27-42190133ddc3{fill:#231f20;}</style>
  </defs>
  <title
     id="title6">logo_transparent</title>
  <g
     id="b431e0c3-126a-4307-81ab-2eb16d29cbba"
     data-name="Layer 1">
    <path
       class="a7e91070-bc4e-4d7e-a1a4-375ce9b112ea"
       d="M-378,647.25q0-49.75,0-99.49a19.36,19.36,0,0,0-1.22-7.3,516.45,516.45,0,0,1-32.52-129.28,537.27,537.27,0,0,1,6.05-167A528.74,528.74,0,0,1-339.42,72.51a525.48,525.48,0,0,1,72.53-94.36c36.85-38.27,78.21-70.68,124.65-96.48a532.33,532.33,0,0,1,260.33-67.12C213.79-185,303.26-161,386-112.69A533.93,533.93,0,0,1,613.77,155.22a533.07,533.07,0,0,1,34,234.53,531.13,531.13,0,0,1-34.14,149.7,23.61,23.61,0,0,0-1.68,8.69q.06,99.24.13,198.48c0,4.3-.88,5.52-5.39,5.5-46-.19-92-.08-138-.19a14.68,14.68,0,0,0-10.28,3.67A527.73,527.73,0,0,1,267.18,858,519.18,519.18,0,0,1,152.46,878.2a557.25,557.25,0,0,1-79.34-.48,538,538,0,0,1-100.52-18c-52.32-14.55-101-37.18-146.48-66.62A461.66,461.66,0,0,1-225.11,755a12,12,0,0,0-8.5-3c-46.33.09-92.66,0-139,.16-4.25,0-5.56-.8-5.53-5.36C-377.9,713.58-378,680.41-378,647.25ZM117,737q237,0,473.94.12c5.16,0,6.24-1.39,6.22-6.34q-.27-84,0-168c0-4.3-.74-5.93-5.6-5.92q-474.44.2-948.87,0c-4.68,0-5.72,1.34-5.7,5.82q.22,84,.1,168c0,7.12-.76,6.29,6.51,6.3ZM573.73,269.5C541.14,72,354.49-123.48,91.6-109.55-156-96.43-313.81,98.46-339.59,269.67c3.1-.78,6.1-2,9.18-2.22,3.89-.3,5.66-2.22,7.09-5.64a90.19,90.19,0,0,1,27.74-36.56c19.92-15.73,42.53-22.77,67.89-20.31,4.23.41,7.35-.32,10.6-3.58q90-90.33,180.14-180.47c3.46-3.47,5.33-3.32,8.68.05Q26.7,76.28,82,131.32c4.2,4.2,4.23,4.21,6.72-1a126.48,126.48,0,0,1,23.48-34.48c2.56-2.63,4.35-2.81,6.6,0,3.51,4.44,7.27,8.68,10.63,13.22C136,117.92,140.5,128,146,139.81c1.55-2.42,2.29-4.2,3.56-5.47Q206.19,77.54,262.88,20.72c3.53-3.56,5.11-3.1,8.37.17q90,90.3,180.14,180.46c3.08,3.09,6.08,4.32,10.1,3.62a64.08,64.08,0,0,1,22.36.29c34.8,6.16,59.7,25.17,73.88,57.78.74,1.7,1.35,3.41,3.49,3.84C565.37,267.71,569.51,268.61,573.73,269.5ZM-100.65,497c16.53,0,32,0,47.42,0,2.57,0,2.81-1.95,3.56-3.47q7.19-14.54,14.28-29.11,16.73-34.29,33.46-68.59C-1.12,394.2-.81,391.92,2,392c4.58.1,9.17,0,14.56,0L-34.64,497c12.94,0,24.93-.18,36.91.11C5.88,497.2,7,495.85,8,492.7q13.65-45.34,27.56-90.6c3.09-10.13,3.1-9.88,13.46-10.22,4.54-.14,5.17,1,3.88,5.11-8.51,27.28-16.82,54.62-25.18,81.95-1.8,5.89-3.56,11.8-5.44,18.06,11.11,0,21.44-.29,31.75.13,4.7.2,6.13-1.32,6.81-5.8,4.53-29.75,9.37-59.46,14.07-89.19,1.62-10.21,1.58-10,11.74-10.25,4.39-.12,4.83,1.47,4.22,5.17-5.22,32.17-10.3,64.35-15.51,96.52-.43,2.63,0,3.52,2.86,3.47,8.67-.15,17.34-.29,26,.05,4.3.17,5.6-.86,5.57-5.41-.23-30.33-.12-60.66-.12-91,0-8.71,0-8.37,8.55-8.83,5-.26,6.32,1.16,6.28,6.24-.26,31.32-.06,62.66-.22,94,0,3.89.95,5.14,5,5,8.82-.32,17.67-.18,26.5-.06,2.61,0,3.44-.56,3-3.37-5.19-32-10.16-64-15.47-96-.81-4.85.4-6.31,5.06-5.69a30,30,0,0,0,6,0c2.38-.16,3.48.5,3.88,3.17,2.18,14.8,4.61,29.57,6.95,44.34q4.26,26.86,8.54,53.71c.3,1.88.13,3.91,3.25,3.87,11.48-.16,23-.06,34.92-.06L179.75,392c4.17,0,7.69.29,11.13-.08s4.87,1.12,5.84,4.34c9.69,32.13,19.58,64.2,29.25,96.34,1,3.44,2.52,4.59,6.14,4.5,10.16-.28,20.33-.1,30.5-.1,6.09,0,6.1,0,3.33-5.68q-22-45.06-44-90.1c-4.5-9.23-4.51-9,6-9.31,4.31-.12,6.73.9,8.76,5.14,15.46,32.23,31.29,64.29,46.87,96.47,1.27,2.61,2.64,3.59,5.57,3.55,12.83-.17,25.66-.07,38.5-.07h7L263.83,392c5.11,0,9.13.27,13.09-.08,3.63-.33,5.67,1.05,7.65,4,21.67,32.34,43.53,64.55,65.19,96.89,2.1,3.15,4.27,4.35,8.06,4.28,12.83-.26,25.67-.1,38.5-.1h19.34L317.79,392c6.35,0,11.64.15,16.92-.06,2.81-.12,4.55,1.05,6.38,3q45.72,49.21,91.52,98.37a10.5,10.5,0,0,0,8.59,3.76c24.5-.17,49-.09,73.49-.09h6.1L391.2,392c6.73,0,12,.24,17.31-.07,4.45-.27,7.78,1.11,11.26,3.95,38.55,31.47,77.34,62.62,115.79,94.2,6.32,5.19,12.57,8,20.72,7,2.53-.3,3.82-.9,4.55-3.37C566,476.37,570.47,458.84,574,441c.59-3-.09-4.78-3-6.37-13.49-7.57-26.84-15.38-40.24-23.12q-16.08-9.3-32.16-18.64a251.37,251.37,0,0,1,27.47-.81c1.2,0,2.44.94,3.57,1.59,14.57,8.35,29.18,16.64,43.65,25.16,3.31,2,4.32,1.19,4.63-2.29,1-11.11,2.17-22.2,3-33.31.48-6.23.26-6.25-6.2-6.25H-340.71a24.83,24.83,0,0,1-3,0c-2.92-.35-3.59.85-3.47,3.72.5,12,2,23.88,3.22,35.8.45,4.16,1.88,4,5,2.14,14.33-8.43,28.8-16.65,43.2-25,1.3-.75,2.46-1.68,4.08-1.68,8.93,0,17.85,0,28.19,0-2.8,1.76-4.38,2.83-6,3.78q-33.69,19.47-67.43,38.87c-2.41,1.37-3.75,2.68-3.15,5.81a478.44,478.44,0,0,0,13.27,53.19c.37,1.19.47,3.23,2,3.15,6.09-.36,12.37,2,18.12-2.73q61.13-49.87,122.5-99.41c1.27-1,2.42-2.55,4.18-2.58,7.2-.09,14.4,0,22.82,0L-286.85,497c27.11,0,52.61-.12,78.1.11a13.5,13.5,0,0,0,11.15-4.82q45.4-49.17,91.16-98c.89-.95,1.66-2.2,3.18-2.21,6.2,0,12.4,0,19.42,0l-97.82,105c20.15,0,39-.14,57.78.11,4.07.05,6.21-1.42,8.37-4.65Q-82.9,443.71-50,395.17c1-1.48,1.68-3.23,4-3.19,5.09.09,10.19,0,16.13,0Zm-224.54,45q-41.73-99.88-37.57-206.87a471,471,0,0,1,54.08-202.61A478.49,478.49,0,0,1-173.17-27.87c155.47-118.21,370-131.73,540.22-27.22,101,62,170.48,150,206.88,263.06,36.31,112.79,29.51,224.18-14.49,334,10.95,0,21.45-.17,31.94.09,3.7.09,5.44-1,6.86-4.55a515.35,515.35,0,0,0,36-196.95A514,514,0,0,0,626,253.74a512.43,512.43,0,0,0-54.4-154,516,516,0,0,0-134-158.8,511.19,511.19,0,0,0-200.7-97.42c-42.15-10.06-84.87-14.3-128.16-13.79A506.11,506.11,0,0,0,2.9-157.89,511,511,0,0,0-173.62-81.36a519.1,519.1,0,0,0-131,128.29,512.9,512.9,0,0,0-76.94,160.64,508.78,508.78,0,0,0-18.33,113.56,530.72,530.72,0,0,0,3.77,93.18A520.52,520.52,0,0,0-363.76,539c.81,2.07,1.76,3.12,4.24,3.08C-348.36,541.91-337.2,542-325.19,542ZM108.28,328.22l1.51-.76V314.65c0-21.62,0-43.24,0-64.86,0-2.44.89-5.25-3.38-5.88-17.68-2.58-27.56-13.81-31.48-30.45-4.53-19.28-2.07-38.34,3.87-57,1.18-3.72.53-5.95-2.21-8.67Q23.77,95.29-28.74,42.46c-3.38-3.41-5.07-3.47-8.5,0q-81.46,81.84-163.22,163.39c-.35.36-.68.73-1.06,1.06-2.36,2-3.32,3.31.74,4.84a76.22,76.22,0,0,1,17.44,9.58c18.58,13.27,30.64,31,36.75,53,2.88,10.4,3.15,10.11,13.51,7.91,24-5.11,47.4-3,69.71,7.09,30.63,13.89,51.45,37.07,62.5,68.87,1.06,3,2.54,3.93,5.71,3.91,25.49-.13,51-.07,76.48-.07,8.16,0,16.33,0,24.49,0,1.36,0,3.63.71,3.72-1.34.18-4.5,1.53-9.18-2.48-13.14Q81.28,322,55.77,296.24c-1.63-1.63-3-2.57-5.6-1.59C41.3,298,34,294.34,27.35,288.73c-7.46-6.27-12.13-14.54-16.07-23.2-5.9-13-9.71-26.48-9.36-40.94.07-3.16.27-4.48,4.4-4,19.93,2.38,36.36,11.63,50.09,25.57,9.62,9.76,16,21.15,8.87,35.5-1.06,2.13.4,3.38,1.73,4.7q8.26,8.29,16.5,16.63Q95.92,315.6,108.28,328.22ZM157.16,193.3c0,2.92.28,4.8,0,6.57-1,5.29,1,9,4.93,12.62,8.05,7.48,15.8,15.3,23.32,23.32,2.89,3.08,4.7,2.64,7.78.43,11.5-8.22,24-14.06,38.33-15.64,4.36-.48,4.55.92,4.6,4.28.19,15.85-4.25,30.52-11.29,44.48-1.43,2.84-1.34,4.53,1,6.83C236.87,287,247.86,298,258.65,309.07c2.81,2.89,4.41,3,7.57.26q44.23-38.81,102-26.77c11,2.31,8.66,3,11.46-7,8.46-30.12,26.34-51.82,55.3-64,3.62-1.52,2.89-2.44.76-4.56Q352.79,124.2,270,41.22c-2.36-2.36-3.67-2.24-6,.05Q208.79,96.68,153.37,151.93c-1.85,1.85-2.33,3.39-1.59,6.09C155,169.9,157.64,181.93,157.16,193.3ZM415.51,362q80.46,0,160.92.09c4.26,0,5.73-.89,5.7-5.46-.09-11.49-.46-22.95-1.26-34.39-.74-10.59-2-21.15-3.09-31.72a5.11,5.11,0,0,0-3.79-4.65c-6-2.15-12-4.24-18.29-4.65-6-.39-8.93-2.94-10.8-8.58a75.36,75.36,0,0,0-24.17-34.74C504.05,224.15,484.92,218,463.35,220q-31.41,2.87-52.54,26.39c-13,14.44-18.63,31.91-20.74,50.8-.73,6.51-1.22,6.86-7.38,4.87-14.25-4.62-28.58-7.87-43.86-7.32-38.06,1.37-73.92,26.15-88.06,61.75-2.18,5.49-2.18,5.49,3.83,5.5Zm-597.68,0H-20.7c5.55,0,5.65-.2,3.52-5.21-7.25-17-18-31.35-33-42.38C-73,297.52-98.54,291.77-126.48,296c-8.59,1.29-16.65,4.58-25,6.8-2.73.72-4.37.63-4.63-2.9s-1.34-7.18-1.81-10.8c-5.16-39.7-39.5-69-75.73-69.31-18.46-.16-35,4.37-49.87,15.24-14,10.28-23.36,24-29,40.27-1,2.92-2.1,4.7-5.6,5.15a100.39,100.39,0,0,0-21.24,5.17c-3,1.07-4.21,2.72-4.56,5.7-2.5,21.31-4.45,42.65-4.12,64.15.1,6.57,0,6.58,6.38,6.58ZM116.94,512h-431.4c-6.05,0-6.19.06-4,6,2.27,6.06,5.18,11.9,7.18,18,1.53,4.68,3.9,6.12,8.9,6.12q419.4-.21,838.82-.12a21.29,21.29,0,0,1,3,0c2.38.33,3.59-.74,4.44-2.92,2.71-7,5.62-13.85,8.4-20.79,2.52-6.29,2.49-6.31-4.45-6.31ZM-124.12,752.19c74.84,44.75,154.75,67.52,240.66,67.38s166.19-21.84,239.58-67.38Zm-79.24-.19c45.14,37.35,95.59,64.73,150.47,84C2.23,855.34,59.2,864.5,117.51,864.52A506.67,506.67,0,0,0,287.36,835.8,521.66,521.66,0,0,0,439,752c-17.68,0-34,0-50.33,0a7.87,7.87,0,0,0-4.63,1.45,479.52,479.52,0,0,1-237.22,80.33A459.19,459.19,0,0,1,80,833.16,483.86,483.86,0,0,1,4.81,821.4a480.19,480.19,0,0,1-154.34-67.5C-150.9,753-152.2,752-154,752Q-178.69,752-203.36,752ZM179.06,362c16.49,0,33-.05,49.46,0,2.77,0,4.59-.39,5.52-3.49a99.81,99.81,0,0,1,15.81-30.91c2.08-2.8,2.18-4.45-.46-7q-16.32-15.83-32.16-32.14c-2.41-2.47-3.8-2.46-6.38-.12-6.57,5.93-14.1,9.89-23.14,6.23-3.28-1.33-5-.75-7.24,1.56-17.45,17.63-35,35.14-52.59,52.69a21.21,21.21,0,0,0-2.39,2.54c-2.15,3-1.8,6.6-.83,9.59.69,2.16,3.89,1,5.94,1C146.75,362,162.91,362,179.06,362Zm-53.82-31.81c15.69-15.65,31.09-31,46.52-46.37,1.18-1.17.91-2.21.28-3.54-4.77-10.06-1.88-19.18,4-27.6,1.75-2.49,1.73-3.69-.37-5.72-6.94-6.7-13.82-13.49-20.47-20.49-2.73-2.87-3.74-2.2-5.53.91a32.5,32.5,0,0,1-21,15.64c-3.62.89-4.63,2.39-4.61,6,.16,25.42.07,50.84.12,76.26C124.22,326.71,123.78,328.27,125.24,330.19Z"
       transform="translate(415.56 185.46)"
       id="path8" />
    <path
       class="e069c3a9-1290-428d-a99d-a7a75a876e99"
       d="M117,737H-356.48c-7.27,0-6.5.82-6.51-6.3q0-84-.1-168c0-4.48,1-5.82,5.7-5.82q474.43.17,948.87,0c4.86,0,5.61,1.62,5.6,5.92q-.2,84,0,168c0,5-1.06,6.35-6.22,6.34Q353.92,736.9,117,737ZM250.66,631.65c-11.61-5.88-18.74-5.78-25.75,1.27-7.47,7.51-10,17.06-8.6,27.44.83,6.07,2.84,11.76,7.46,16.3,6.65,6.56,15.95,7.53,24.47,2.27,1.95-1.2,4.09-3.84,5.18,1,.32,1.45,13.19,1.75,14.18.42a4.14,4.14,0,0,0,.54-2.34q0-33.44,0-66.88c0-2-.54-3.15-2.79-3.1-4.16.07-8.32,0-12.48,0-1.81,0-2.86.57-2.8,2.56C250.34,617.47,249.55,624.42,250.66,631.65ZM-45,658c0-4.5-.1-9,0-13.5.09-2.59-.86-3.57-3.47-3.47-4,.16-8,0-12,0-11.42,0-9-1-9.54,9.64-.2,4,.84,6,5.18,5.32,1.73-.26,4.18-.43,3.68,2.45-.47,2.71,2.16,6.55-2.7,7.9a11.94,11.94,0,0,1-13.49-6.09,28.72,28.72,0,0,1-.59-25.08c3.25-7.43,10.66-10.83,16.65-7,5.19,3.3,7.42.95,10.14-2.53a18.06,18.06,0,0,1,2.37-2.57c2.5-2.17,1.61-3.45-.59-5.47-9.59-8.83-28.53-7.24-37.45.73-10.85,9.7-13.06,22.07-11.44,35.85,2.76,23.61,25.32,33.65,45.33,24.75,5.4-2.4,9.34-5.57,8-12.47C-45.45,663.79-45,660.86-45,658ZM.32,660.1v0c4.32,0,8.66-.19,13,0,3.28.19,4.33-1.18,4.58-4.27C19.11,640.19,9.28,624.23-13,628c-10.36,1.74-17.15,8-20.36,17.63-3.31,9.88-1.84,19.36,5.2,27.54,10.09,11.73,30.51,11.14,42.32,4.07,1.3-.78,1.61-1.41.76-2.72-1.78-2.75-2.92-6.32-5.38-8.07-1.41-1-4.89.92-7.45,1.52a17.66,17.66,0,0,1-3.84.85c-4.92,0-9.6-.86-13-4.89-1.87-2.23-1.39-3.72,1.64-3.79C-8.66,660-4.17,660.1.32,660.1Zm298.27,0c10.06,0,19.68-.09,29.31,0,2.77,0,4.18-.57,4.57-3.63,1-7.6-.31-14.65-5.15-20.61-7.84-9.66-22.36-11.39-34.47-4.43-10.69,6.15-15.47,20.94-11,33.18,7.61,20.83,34.09,20.51,46.95,12.48.95-.6,1.56-1.37.95-2.45-1.53-2.75-2.76-5.82-4.86-8-1.76-1.84-3.89.8-5.92,1.13-1.8.3-3.57.78-5.38,1C306.79,669.6,300.79,666.33,298.59,660.08ZM81.27,655.22c.17-16.12-11.07-28-26.61-28.12-15.12-.12-26.38,11.4-27,26.7-.75,17.91,12.8,28.31,26.13,28.32C70,682.14,81.1,671.41,81.27,655.22Zm126-.17c.12-16.08-11.27-28-26.77-27.95-15.17,0-26.22,11.49-26.85,26.87-.71,17.42,12.54,27.89,26.29,28.24C193.83,682.57,208.32,671.18,207.26,655.05Zm-82.74-43.22c-15.2,0-25.9,7.68-30.86,21.4C91,640.62,90.85,648.08,92,655.76c3,21.34,28.75,33.64,47.19,22.5,8-4.84,8.09-5.32,1.86-12a8.11,8.11,0,0,1-1.36-1.46c-1.67-3-3.23-3.21-6.19-1-7.35,5.55-17.19,3.19-21.06-5.09s-3.89-16.78.75-24.88c3.37-5.89,10.71-9.13,16.18-5.89,5.89,3.5,9.1,1.74,12.28-3.05a12.06,12.06,0,0,1,2-2.19c1.78-1.63,1.59-2.81-.37-4.34C137.56,613.94,131.34,611.21,124.52,611.83Z"
       transform="translate(415.56 185.46)"
       id="path10" />
    <path
       class="e069c3a9-1290-428d-a99d-a7a75a876e99"
       d="M108.28,328.22Q95.89,315.62,83.51,303q-8.22-8.34-16.5-16.63c-1.33-1.32-2.79-2.57-1.73-4.7,7.14-14.35.75-25.74-8.87-35.5C42.68,232.23,26.25,223,6.32,220.6c-4.13-.49-4.33.83-4.4,4-.35,14.46,3.46,28,9.36,40.94,3.94,8.66,8.61,16.93,16.07,23.2C34,294.34,41.3,298,50.17,294.65c2.63-1,4,0,5.6,1.59q25.59,25.68,51.28,51.24c4,4,2.66,8.64,2.48,13.14-.09,2.05-2.36,1.33-3.72,1.34-8.16.07-16.33,0-24.49,0-25.5,0-51-.06-76.48.07-3.17,0-4.65-.86-5.71-3.91-11-31.8-31.87-55-62.5-68.87-22.31-10.12-45.75-12.2-69.71-7.09-10.36,2.2-10.63,2.49-13.51-7.91-6.11-22-18.17-39.72-36.75-53a76.22,76.22,0,0,0-17.44-9.58c-4.06-1.53-3.1-2.83-.74-4.84.38-.33.71-.7,1.06-1.06Q-118.8,124.17-37.24,42.43c3.43-3.44,5.12-3.38,8.5,0Q23.73,95.33,76.58,147.81c2.74,2.72,3.39,4.95,2.21,8.67-5.94,18.64-8.4,37.7-3.87,57,3.92,16.64,13.8,27.87,31.48,30.45,4.27.63,3.38,3.44,3.38,5.88.06,21.62,0,43.24,0,64.86v12.81Z"
       transform="translate(415.56 185.46)"
       id="path12" />
    <path
       class="e069c3a9-1290-428d-a99d-a7a75a876e99"
       d="M157.16,193.3c.48-11.37-2.13-23.4-5.38-35.28-.74-2.7-.26-4.24,1.59-6.09Q208.77,96.67,264,41.27c2.29-2.29,3.6-2.41,6-.05q82.8,83,165.76,165.82c2.13,2.12,2.86,3-.76,4.56-29,12.16-46.84,33.86-55.3,64-2.8,10-.48,9.29-11.46,7q-57.63-12.13-102,26.77c-3.16,2.77-4.76,2.63-7.57-.26C247.86,298,236.87,287,225.79,276.19c-2.35-2.3-2.44-4-1-6.83,7-14,11.48-28.63,11.29-44.48,0-3.36-.24-4.76-4.6-4.28-14.36,1.58-26.83,7.42-38.33,15.64-3.08,2.21-4.89,2.65-7.78-.43-7.52-8-15.27-15.84-23.32-23.32-3.9-3.61-5.89-7.33-4.93-12.62C157.44,198.1,157.16,196.22,157.16,193.3Z"
       transform="translate(415.56 185.46)"
       id="path14" />
    <path
       class="e069c3a9-1290-428d-a99d-a7a75a876e99"
       d="M415.51,362H254.6c-6,0-6,0-3.83-5.5,14.14-35.6,50-60.38,88.06-61.75,15.28-.55,29.61,2.7,43.86,7.32,6.16,2,6.65,1.64,7.38-4.87,2.11-18.89,7.76-36.36,20.74-50.8q21.07-23.46,52.54-26.39c21.57-2,40.7,4.14,57.38,17.89a75.36,75.36,0,0,1,24.17,34.74c1.87,5.64,4.77,8.19,10.8,8.58,6.26.41,12.32,2.5,18.29,4.65a5.11,5.11,0,0,1,3.79,4.65c1.08,10.57,2.35,21.13,3.09,31.72.8,11.44,1.17,22.9,1.26,34.39,0,4.57-1.44,5.47-5.7,5.46Q496,361.88,415.51,362Z"
       transform="translate(415.56 185.46)"
       id="path16" />
    <path
       class="e069c3a9-1290-428d-a99d-a7a75a876e99"
       d="M-182.17,362H-341.63c-6.36,0-6.28,0-6.38-6.58-.33-21.5,1.62-42.84,4.12-64.15.35-3,1.57-4.63,4.56-5.7a100.39,100.39,0,0,1,21.24-5.17c3.5-.45,4.6-2.23,5.6-5.15,5.62-16.3,14.95-30,29-40.27,14.85-10.87,31.41-15.4,49.87-15.24,36.23.32,70.57,29.61,75.73,69.31.47,3.62,1.55,7.18,1.81,10.8s1.9,3.62,4.63,2.9c8.34-2.22,16.4-5.51,25-6.8,27.94-4.18,53.5,1.57,76.34,18.45,14.94,11,25.71,25.35,33,42.38,2.13,5,2,5.21-3.52,5.21Z"
       transform="translate(415.56 185.46)"
       id="path18" />
    <path
       class="e069c3a9-1290-428d-a99d-a7a75a876e99"
       d="M116.94,512H547.85c6.94,0,7,0,4.45,6.31-2.78,6.94-5.69,13.83-8.4,20.79-.85,2.18-2.06,3.25-4.44,2.92a21.29,21.29,0,0,0-3,0q-419.41,0-838.82.12c-5,0-7.37-1.44-8.9-6.12-2-6.15-4.91-12-7.18-18-2.22-5.89-2.08-5.94,4-6h431.4Z"
       transform="translate(415.56 185.46)"
       id="path20" />
    <path
       class="e069c3a9-1290-428d-a99d-a7a75a876e99"
       d="M-124.12,752.19H356.12c-73.39,45.54-153.68,67.24-239.58,67.38S-49.28,796.94-124.12,752.19Z"
       transform="translate(415.56 185.46)"
       id="path22" />
    <path
       class="e069c3a9-1290-428d-a99d-a7a75a876e99"
       d="M179.06,362c-16.15,0-32.31,0-48.46-.05-2,0-5.25,1.18-5.94-1-1-3-1.32-6.59.83-9.59a21.21,21.21,0,0,1,2.39-2.54c17.55-17.55,35.14-35.06,52.59-52.69,2.29-2.31,4-2.89,7.24-1.56,9,3.66,16.57-.3,23.14-6.23,2.58-2.34,4-2.35,6.38.12q15.89,16.27,32.16,32.14c2.64,2.57,2.54,4.22.46,7A99.81,99.81,0,0,0,234,358.55c-.93,3.1-2.75,3.51-5.52,3.49C212,362,195.55,362,179.06,362Z"
       transform="translate(415.56 185.46)"
       id="path24" />
    <path
       class="e069c3a9-1290-428d-a99d-a7a75a876e99"
       d="M125.24,330.19c-1.46-1.92-1-3.48-1-4.89,0-25.42,0-50.84-.12-76.26,0-3.63,1-5.13,4.61-6a32.5,32.5,0,0,0,21-15.64c1.79-3.11,2.8-3.78,5.53-.91,6.65,7,13.53,13.79,20.47,20.49,2.1,2,2.12,3.23.37,5.72-5.9,8.42-8.79,17.54-4,27.6.63,1.33.9,2.37-.28,3.54C156.33,299.17,140.93,314.54,125.24,330.19Z"
       transform="translate(415.56 185.46)"
       id="path26" />
    <path
       class="a7e91070-bc4e-4d7e-a1a4-375ce9b112ea"
       d="M250.66,631.65c-1.11-7.23-.32-14.18-.55-21.1-.06-2,1-2.58,2.8-2.56,4.16,0,8.32.07,12.48,0,2.25,0,2.79,1.11,2.79,3.1q0,33.43,0,66.88a4.14,4.14,0,0,1-.54,2.34c-1,1.33-13.86,1-14.18-.42-1.09-4.8-3.23-2.16-5.18-1-8.52,5.26-17.82,4.29-24.47-2.27-4.62-4.54-6.63-10.23-7.46-16.3-1.4-10.38,1.13-19.93,8.6-27.44C231.92,625.87,239.05,625.77,250.66,631.65Zm-.56,22.75c0-2.17-.16-4.34,0-6.49.25-2.52-.74-3.92-3-4.94-5-2.23-11,.46-11.86,6-.62,4-.88,8.27.36,12.34,1.52,5,4,6.48,9.37,5.73,4.49-.61,5.37-3.76,5.13-7.65C250,657.73,250.1,656.06,250.1,654.4Z"
       transform="translate(415.56 185.46)"
       id="path28" />
    <path
       class="a7e91070-bc4e-4d7e-a1a4-375ce9b112ea"
       d="M-45,658c0,2.83-.45,5.76.09,8.48,1.38,6.9-2.56,10.07-8,12.47-20,8.9-42.57-1.14-45.33-24.75-1.62-13.78.59-26.15,11.44-35.85,8.92-8,27.86-9.56,37.45-.73,2.2,2,3.09,3.3.59,5.47a18.06,18.06,0,0,0-2.37,2.57c-2.72,3.48-4.95,5.83-10.14,2.53-6-3.81-13.4-.41-16.65,7a28.72,28.72,0,0,0,.59,25.08,11.94,11.94,0,0,0,13.49,6.09c4.86-1.35,2.23-5.19,2.7-7.9.5-2.88-1.95-2.71-3.68-2.45-4.34.63-5.38-1.34-5.18-5.32.53-10.59-1.88-9.59,9.54-9.64,4,0,8,.12,12,0,2.61-.1,3.56.88,3.47,3.47C-45.1,649-45,653.53-45,658Z"
       transform="translate(415.56 185.46)"
       id="path30" />
    <path
       class="a7e91070-bc4e-4d7e-a1a4-375ce9b112ea"
       d="M.32,660.1c-4.49,0-9-.07-13.47,0-3,.07-3.51,1.56-1.64,3.79,3.4,4,8.08,4.91,13,4.89A17.66,17.66,0,0,0,2.05,668c2.56-.6,6-2.52,7.45-1.52,2.46,1.75,3.6,5.32,5.38,8.07.85,1.31.54,1.94-.76,2.72-11.81,7.07-32.23,7.66-42.32-4.07-7-8.18-8.51-17.66-5.2-27.54C-30.19,636-23.4,629.73-13,628c22.32-3.76,32.15,12.2,30.91,27.86-.25,3.09-1.3,4.46-4.58,4.27-4.31-.24-8.65,0-13,0Zm-7.86-11.92c1.83,0,3.66.05,5.48,0,1.11,0,2.49.25,2.93-1.23.4-1.32-.63-2.12-1.4-3-3.39-3.73-10-4-13.35-.53-1,1.06-2.26,2.37-1.69,3.87s2.31.75,3.55.84C-10.53,648.25-9,648.17-7.54,648.18Z"
       transform="translate(415.56 185.46)"
       id="path32" />
    <path
       class="a7e91070-bc4e-4d7e-a1a4-375ce9b112ea"
       d="M298.59,660.08c2.2,6.25,8.2,9.52,15,8.67,1.81-.22,3.58-.7,5.38-1,2-.33,4.16-3,5.92-1.13,2.1,2.23,3.33,5.3,4.86,8,.61,1.08,0,1.85-.95,2.45-12.86,8-39.34,8.35-46.95-12.48-4.47-12.24.31-27,11-33.18,12.11-7,26.63-5.23,34.47,4.43,4.84,6,6.11,13,5.15,20.61-.39,3.06-1.8,3.67-4.57,3.63C318.27,660,308.65,660.08,298.59,660.08Zm10.5-11.62a25.07,25.07,0,0,0,3.42-.19c1.19-.18,2.91.46,3.41-1.23s-.59-3.13-1.91-4.25c-2.95-2.49-8.9-2.53-12,0-1.39,1.14-3.2,2.62-2.65,4.41s2.87.9,4.4,1.19A37.59,37.59,0,0,0,309.09,648.46Z"
       transform="translate(415.56 185.46)"
       id="path34" />
    <path
       class="a7e91070-bc4e-4d7e-a1a4-375ce9b112ea"
       d="M81.27,655.22c-.17,16.19-11.3,26.92-27.5,26.9-13.33,0-26.88-10.41-26.13-28.32.64-15.3,11.9-26.82,27-26.7C70.2,627.23,81.44,639.1,81.27,655.22ZM63,655a17.86,17.86,0,0,0-1.65-9.27C60,643,57.66,642,54.81,641.92s-5.53.56-6.78,3.29C45.18,651.39,44.72,657.8,48,664a7.41,7.41,0,0,0,13,.14A14.24,14.24,0,0,0,63,655Z"
       transform="translate(415.56 185.46)"
       id="path36" />
    <path
       class="a7e91070-bc4e-4d7e-a1a4-375ce9b112ea"
       d="M207.26,655.05c1.06,16.13-13.43,27.52-27.33,27.16-13.75-.35-27-10.82-26.29-28.24.63-15.38,11.68-26.86,26.85-26.87C196,627.09,207.38,639,207.26,655.05Zm-18.26-.4a21.46,21.46,0,0,0-.91-6.92c-1.15-3.92-3.6-5.84-7.63-5.82s-6.44,2-7.58,5.9a25.75,25.75,0,0,0-.88,7.39c0,8,3,12.48,8.29,12.62C185.84,668,189,663.37,189,654.65Z"
       transform="translate(415.56 185.46)"
       id="path38" />
    <path
       class="a7e91070-bc4e-4d7e-a1a4-375ce9b112ea"
       d="M124.52,611.83c6.82-.62,13,2.11,18.75,6.57,2,1.53,2.15,2.71.37,4.34a12.06,12.06,0,0,0-2,2.19c-3.18,4.79-6.39,6.55-12.28,3.05-5.47-3.24-12.81,0-16.18,5.89-4.64,8.1-4.6,16.63-.75,24.88s13.71,10.64,21.06,5.09c3-2.23,4.52-2.05,6.19,1a8.11,8.11,0,0,0,1.36,1.46c6.23,6.66,6.15,7.14-1.86,12C120.7,689.4,95,677.1,92,655.76c-1.1-7.68-1-15.14,1.71-22.53C98.62,619.51,109.32,611.87,124.52,611.83Z"
       transform="translate(415.56 185.46)"
       id="path40" />
    <path
       class="e069c3a9-1290-428d-a99d-a7a75a876e99"
       d="M250.1,654.4c0,1.66-.08,3.33,0,5,.24,3.89-.64,7-5.13,7.65-5.41.75-7.85-.77-9.37-5.73-1.24-4.07-1-8.31-.36-12.34.86-5.54,6.89-8.23,11.86-6,2.28,1,3.27,2.42,3,4.94C249.94,650.06,250.1,652.23,250.1,654.4Z"
       transform="translate(415.56 185.46)"
       id="path42" />
    <path
       class="e069c3a9-1290-428d-a99d-a7a75a876e99"
       d="M-7.54,648.18c-1.49,0-3,.07-4.48,0-1.24-.09-3,.67-3.55-.84s.66-2.81,1.69-3.87c3.38-3.49,10-3.2,13.35.53.77.85,1.8,1.65,1.4,3-.44,1.48-1.82,1.19-2.93,1.23C-3.88,648.23-5.71,648.18-7.54,648.18Z"
       transform="translate(415.56 185.46)"
       id="path44" />
    <path
       class="e069c3a9-1290-428d-a99d-a7a75a876e99"
       d="M309.09,648.46a37.59,37.59,0,0,1-5.33,0c-1.53-.29-3.87.54-4.4-1.19s1.26-3.27,2.65-4.41c3.1-2.56,9.05-2.52,12,0,1.32,1.12,2.44,2.44,1.91,4.25s-2.22,1.05-3.41,1.23A25.07,25.07,0,0,1,309.09,648.46Z"
       transform="translate(415.56 185.46)"
       id="path46" />
    <path
       class="e069c3a9-1290-428d-a99d-a7a75a876e99"
       d="M63,655A14.24,14.24,0,0,1,61,664.09,7.41,7.41,0,0,1,48,664c-3.26-6.15-2.8-12.56.05-18.74,1.25-2.73,4-3.37,6.78-3.29S60,643,61.3,645.74A17.86,17.86,0,0,1,63,655Z"
       transform="translate(415.56 185.46)"
       id="path48" />
    <path
       class="e069c3a9-1290-428d-a99d-a7a75a876e99"
       d="M189,654.65c0,8.72-3.16,13.31-8.71,13.17-5.33-.14-8.26-4.61-8.29-12.62a25.75,25.75,0,0,1,.88-7.39c1.14-3.9,3.53-5.89,7.58-5.9s6.48,1.9,7.63,5.82A21.46,21.46,0,0,1,189,654.65Z"
       transform="translate(415.56 185.46)"
       id="path50" />
  </g>
  <g
     id="a9458f6d-ffa8-4c8d-91cc-8bfff8f31e98"
     data-name="Layer 2">
    <path
       class="ec5503ae-b2fc-4350-8cf0-207ea5f2789d"
       d="M509.44,593H545v35.6h-35.6Z"
       transform="translate(415.56 185.46)"
       id="path53" />
    <path
       class="ec5503ae-b2fc-4350-8cf0-207ea5f2789d"
       d="M442,593h35.6v35.6H442Z"
       transform="translate(415.56 185.46)"
       id="path55" />
    <path
       class="ec5503ae-b2fc-4350-8cf0-207ea5f2789d"
       d="M442,659.78h35.6v35.6H442Z"
       transform="translate(415.56 185.46)"
       id="path57" />
    <path
       class="e6e955ec-e082-4119-afd9-8e160ee00eeb"
       d="M455.1,572h-34v34h9.32V581.35H455.1Z"
       transform="translate(415.56 185.46)"
       id="path59" />
    <path
       class="e6e955ec-e082-4119-afd9-8e160ee00eeb"
       d="M455.1,717h-34v-34h9.32v24.73H455.1Z"
       transform="translate(415.56 185.46)"
       id="path61" />
    <path
       class="e6e955ec-e082-4119-afd9-8e160ee00eeb"
       d="M532,572h34v34h-9.31V581.35H532Z"
       transform="translate(415.56 185.46)"
       id="path63" />
    <path
       class="e6e955ec-e082-4119-afd9-8e160ee00eeb"
       d="M532,717h34v-34h-9.31v24.73H532Z"
       transform="translate(415.56 185.46)"
       id="path65" />
    <path
       class="ffafc15d-45ce-401a-977b-63c6adf03024"
       d="M521.08,604.63H533.4V617H521.08Z"
       transform="translate(415.56 185.46)"
       id="path67" />
    <path
       class="ffafc15d-45ce-401a-977b-63c6adf03024"
       d="M453.66,604.63H466V617H453.66Z"
       transform="translate(415.56 185.46)"
       id="path69" />
    <path
       class="ffafc15d-45ce-401a-977b-63c6adf03024"
       d="M453.66,671.42H466v12.32H453.66Z"
       transform="translate(415.56 185.46)"
       id="path71" />
    <path
       class="ec5503ae-b2fc-4350-8cf0-207ea5f2789d"
       d="M488.87,593h9.31v10.77h-9.31Z"
       transform="translate(415.56 185.46)"
       id="path73" />
    <path
       class="ec5503ae-b2fc-4350-8cf0-207ea5f2789d"
       d="M509.83,639.84H545v9.32H509.83Z"
       transform="translate(415.56 185.46)"
       id="path75" />
    <path
       class="ec5503ae-b2fc-4350-8cf0-207ea5f2789d"
       d="M442.22,639.84h14.24v9.32H442.22Z"
       transform="translate(415.56 185.46)"
       id="path77" />
    <path
       class="ec5503ae-b2fc-4350-8cf0-207ea5f2789d"
       d="M509.83,658.47v17h9.32v-7.66h16.57v18.66H498.18v-71h-9.31v80.35H545V658.47Z"
       transform="translate(415.56 185.46)"
       id="path79" />
    <path
       class="ec5503ae-b2fc-4350-8cf0-207ea5f2789d"
       d="M468.11,639.84h9.31v9.32h-9.31Z"
       transform="translate(415.56 185.46)"
       id="path81" />
    <path
       class="bea5a0fc-33fd-4abe-9c27-42190133ddc3"
       d="M421.06,608.11h9.32a2,2,0,0,0,2-2V583.39H455.1a2,2,0,0,0,2-2V572a2,2,0,0,0-2-2h-34a2,2,0,0,0-2,2v34A2,2,0,0,0,421.06,608.11Zm2-34h30v5.24H430.38a2,2,0,0,0-2,2V604H423.1Z"
       transform="translate(415.56 185.46)"
       id="path83" />
    <path
       class="bea5a0fc-33fd-4abe-9c27-42190133ddc3"
       d="M455.1,705.61H432.41V682.93a2,2,0,0,0-2-2h-9.32a2,2,0,0,0-2,2v34a2,2,0,0,0,2,2h34a2,2,0,0,0,2-2v-9.31a2,2,0,0,0-2-2Zm-2,9.32h-30V685h5.24v22.69a2,2,0,0,0,2,2h22.69Z"
       transform="translate(415.56 185.46)"
       id="path85" />
    <path
       class="bea5a0fc-33fd-4abe-9c27-42190133ddc3"
       d="M566,570H532a2,2,0,0,0-2,2v9.31a2,2,0,0,0,2,2h22.69v22.68a2,2,0,0,0,2,2H566a2,2,0,0,0,2-2V572A2,2,0,0,0,566,570Zm-2,34h-5.24V581.35a2,2,0,0,0-2-2H534v-5.24h30Z"
       transform="translate(415.56 185.46)"
       id="path87" />
    <path
       class="bea5a0fc-33fd-4abe-9c27-42190133ddc3"
       d="M566,680.89h-9.31a2,2,0,0,0-2,2v22.68H532a2,2,0,0,0-2,2h0V717a2,2,0,0,0,2,2h26.33a2,2,0,1,0,0-4.07H534v-5.24h22.69a2,2,0,0,0,2-2V685H564v23.71a2,2,0,0,0,4.08,0V682.93A2,2,0,0,0,566,680.89Z"
       transform="translate(415.56 185.46)"
       id="path89" />
    <path
       class="bea5a0fc-33fd-4abe-9c27-42190133ddc3"
       d="M509.44,630.63H545a2,2,0,0,0,2-2V593a2,2,0,0,0-2-2h-35.6a2,2,0,0,0-2,2h0v35.6a2,2,0,0,0,2,2Zm2-35.6H543v31.52H511.47Z"
       transform="translate(415.56 185.46)"
       id="path91" />
    <path
       class="bea5a0fc-33fd-4abe-9c27-42190133ddc3"
       d="M533.4,602.59H521.08a2,2,0,0,0-2,2h0V617a2,2,0,0,0,2,2H533.4a2,2,0,0,0,2-2V604.63A2,2,0,0,0,533.4,602.59Zm-2,12.32h-8.25v-8.24h8.25Z"
       transform="translate(415.56 185.46)"
       id="path93" />
    <path
       class="bea5a0fc-33fd-4abe-9c27-42190133ddc3"
       d="M453.66,619H466a2,2,0,0,0,2-2h0V604.63a2,2,0,0,0-2-2H453.66a2,2,0,0,0-2,2V617A2,2,0,0,0,453.66,619Zm2-12.32h8.24v8.24H455.7Z"
       transform="translate(415.56 185.46)"
       id="path95" />
    <path
       class="bea5a0fc-33fd-4abe-9c27-42190133ddc3"
       d="M453.66,685.77H466a2,2,0,0,0,2-2h0V671.42a2,2,0,0,0-2-2H453.66a2,2,0,0,0-2,2v12.32A2,2,0,0,0,453.66,685.77Zm2-12.32h8.24v8.25H455.7Z"
       transform="translate(415.56 185.46)"
       id="path97" />
    <path
       class="bea5a0fc-33fd-4abe-9c27-42190133ddc3"
       d="M477.62,591H442a2,2,0,0,0-2,2v35.6a2,2,0,0,0,2,2h35.6a2,2,0,0,0,2-2h0V593a2,2,0,0,0-2-2Zm-2,35.6H444.05V595h31.53Z"
       transform="translate(415.56 185.46)"
       id="path99" />
    <path
       class="bea5a0fc-33fd-4abe-9c27-42190133ddc3"
       d="M477.62,657.74H442a2,2,0,0,0-2,2v35.6a2,2,0,0,0,2,2h35.6a2,2,0,0,0,2-2h0v-35.6a2,2,0,0,0-2-2Zm-2,35.6H444.05V661.81h31.53Z"
       transform="translate(415.56 185.46)"
       id="path101" />
    <path
       class="bea5a0fc-33fd-4abe-9c27-42190133ddc3"
       d="M488.87,605.79h9.31a2,2,0,0,0,2-2V593a2,2,0,0,0-2-2h-9.31a2,2,0,0,0-2,2v10.77A2,2,0,0,0,488.87,605.79Zm2-10.76h5.24v6.69h-5.24Z"
       transform="translate(415.56 185.46)"
       id="path103" />
    <path
       class="bea5a0fc-33fd-4abe-9c27-42190133ddc3"
       d="M545,637.81H509.83a2,2,0,0,0-2,2v9.32a2,2,0,0,0,2,2H545a2,2,0,0,0,2-2v-9.32A2,2,0,0,0,545,637.81Zm-2,9.31H511.87v-5.24H543Z"
       transform="translate(415.56 185.46)"
       id="path105" />
    <path
       class="bea5a0fc-33fd-4abe-9c27-42190133ddc3"
       d="M442.22,651.19h14.24a2,2,0,0,0,2-2v-9.32a2,2,0,0,0-2-2H442.22a2,2,0,0,0-2,2v9.32A2,2,0,0,0,442.22,651.19Zm2-9.31h10.17v5.24H444.25Z"
       transform="translate(415.56 185.46)"
       id="path107" />
    <path
       class="bea5a0fc-33fd-4abe-9c27-42190133ddc3"
       d="M547.07,695.76V658.47a2,2,0,0,0-2-2H509.83a2,2,0,0,0-2,2v17a2,2,0,0,0,2,2h9.32a2,2,0,0,0,2-2v-5.62h12.51v14.59H500.22v-69a2,2,0,0,0-2-2h-9.31a2,2,0,0,0-2,2v25.74a2,2,0,0,0,4.08,0V617.44h5.24v69a2,2,0,0,0,2,2h37.54a2,2,0,0,0,2-2V667.78a2,2,0,0,0-2-2H519.15a2,2,0,0,0-2,2v5.63h-5.24v-12.9H543v33.21H490.91V679.45a2,2,0,1,0-4.08,0v16.31a2,2,0,0,0,2,2H545A2,2,0,0,0,547.07,695.76Z"
       transform="translate(415.56 185.46)"
       id="path109" />
    <path
       class="bea5a0fc-33fd-4abe-9c27-42190133ddc3"
       d="M488.87,665.48a2,2,0,0,0,2-2v-6.28a2,2,0,0,0-4.08,0v6.28A2,2,0,0,0,488.87,665.48Z"
       transform="translate(415.56 185.46)"
       id="path111" />
    <path
       class="bea5a0fc-33fd-4abe-9c27-42190133ddc3"
       d="M477.42,651.19a2,2,0,0,0,2-2v-9.32a2,2,0,0,0-2-2h-9.31a2,2,0,0,0-2,2h0v9.32a2,2,0,0,0,2,2h9.31Zm-7.28-9.31h5.24v5.24h-5.24Z"
       transform="translate(415.56 185.46)"
       id="path113" />
    <path
       class="ec5503ae-b2fc-4350-8cf0-207ea5f2789d"
       d="M-244.28,592.64h35.6v35.6h-35.6Z"
       transform="translate(415.56 185.46)"
       id="path115" />
    <path
       class="ec5503ae-b2fc-4350-8cf0-207ea5f2789d"
       d="M-311.7,592.64h35.6v35.6h-35.6Z"
       transform="translate(415.56 185.46)"
       id="path117" />
    <path
       class="ec5503ae-b2fc-4350-8cf0-207ea5f2789d"
       d="M-311.7,659.43h35.6V695h-35.6Z"
       transform="translate(415.56 185.46)"
       id="path119" />
    <path
       class="e6e955ec-e082-4119-afd9-8e160ee00eeb"
       d="M-298.61,571.69h-34v34h9.31V581h24.73Z"
       transform="translate(415.56 185.46)"
       id="path121" />
    <path
       class="e6e955ec-e082-4119-afd9-8e160ee00eeb"
       d="M-298.61,716.61h-34v-34h9.31V707.3h24.73Z"
       transform="translate(415.56 185.46)"
       id="path123" />
    <path
       class="e6e955ec-e082-4119-afd9-8e160ee00eeb"
       d="M-221.76,571.69h34v34H-197V581h-24.72Z"
       transform="translate(415.56 185.46)"
       id="path125" />
    <path
       class="e6e955ec-e082-4119-afd9-8e160ee00eeb"
       d="M-221.76,716.61h34v-34H-197V707.3h-24.72Z"
       transform="translate(415.56 185.46)"
       id="path127" />
    <path
       class="ffafc15d-45ce-401a-977b-63c6adf03024"
       d="M-232.64,604.28h12.32V616.6h-12.32Z"
       transform="translate(415.56 185.46)"
       id="path129" />
    <path
       class="ffafc15d-45ce-401a-977b-63c6adf03024"
       d="M-300.06,604.28h12.32V616.6h-12.32Z"
       transform="translate(415.56 185.46)"
       id="path131" />
    <path
       class="ffafc15d-45ce-401a-977b-63c6adf03024"
       d="M-300.06,671.07h12.32v12.32h-12.32Z"
       transform="translate(415.56 185.46)"
       id="path133" />
    <path
       class="ec5503ae-b2fc-4350-8cf0-207ea5f2789d"
       d="M-264.84,592.64h9.31v10.77h-9.31Z"
       transform="translate(415.56 185.46)"
       id="path135" />
    <path
       class="ec5503ae-b2fc-4350-8cf0-207ea5f2789d"
       d="M-243.88,639.49h35.2v9.32h-35.2Z"
       transform="translate(415.56 185.46)"
       id="path137" />
    <path
       class="ec5503ae-b2fc-4350-8cf0-207ea5f2789d"
       d="M-311.5,639.49h14.24v9.32H-311.5Z"
       transform="translate(415.56 185.46)"
       id="path139" />
    <path
       class="ec5503ae-b2fc-4350-8cf0-207ea5f2789d"
       d="M-243.88,658.12v17h9.31v-7.66H-218v18.66h-37.54v-71h-9.31v80.35h56.16V658.12Z"
       transform="translate(415.56 185.46)"
       id="path141" />
    <path
       class="ec5503ae-b2fc-4350-8cf0-207ea5f2789d"
       d="M-285.61,639.49h9.32v9.32h-9.32Z"
       transform="translate(415.56 185.46)"
       id="path143" />
    <path
       class="bea5a0fc-33fd-4abe-9c27-42190133ddc3"
       d="M-332.65,607.76h9.31a2,2,0,0,0,2-2V583h22.69a2,2,0,0,0,2-2v-9.31a2,2,0,0,0-2-2h-34a2,2,0,0,0-2,2v34A2,2,0,0,0-332.65,607.76Zm2-34h30V579h-22.69a2,2,0,0,0-2,2v22.69h-5.23Z"
       transform="translate(415.56 185.46)"
       id="path145" />
    <path
       class="bea5a0fc-33fd-4abe-9c27-42190133ddc3"
       d="M-298.61,705.26H-321.3V682.58a2,2,0,0,0-2-2h-9.31a2,2,0,0,0-2,2v34a2,2,0,0,0,2,2h34a2,2,0,0,0,2-2V707.3a2,2,0,0,0-2-2Zm-2,9.32h-30v-30h5.23V707.3a2,2,0,0,0,2,2h22.69Z"
       transform="translate(415.56 185.46)"
       id="path147" />
    <path
       class="bea5a0fc-33fd-4abe-9c27-42190133ddc3"
       d="M-187.72,569.65h-34a2,2,0,0,0-2,2V581a2,2,0,0,0,2,2h22.69v22.68a2,2,0,0,0,2,2h9.32a2,2,0,0,0,2-2v-34A2,2,0,0,0-187.72,569.65Zm-2,34H-195V581a2,2,0,0,0-2-2h-22.69v-5.24h30Z"
       transform="translate(415.56 185.46)"
       id="path149" />
    <path
       class="bea5a0fc-33fd-4abe-9c27-42190133ddc3"
       d="M-187.72,680.54H-197a2,2,0,0,0-2,2v22.68h-22.69a2,2,0,0,0-2,2h0v9.31a2,2,0,0,0,2,2h26.32a2,2,0,0,0,2-2,2,2,0,0,0-2-2h-24.29v-5.24H-197a2,2,0,0,0,2-2V684.61h5.24v23.71a2,2,0,0,0,2,2,2,2,0,0,0,2-2V682.58A2,2,0,0,0-187.72,680.54Z"
       transform="translate(415.56 185.46)"
       id="path151" />
    <path
       class="bea5a0fc-33fd-4abe-9c27-42190133ddc3"
       d="M-244.28,630.28h35.6a2,2,0,0,0,2-2v-35.6a2,2,0,0,0-2-2h-35.6a2,2,0,0,0-2,2h0v35.6a2,2,0,0,0,2,2Zm2-35.6h31.53V626.2h-31.53Z"
       transform="translate(415.56 185.46)"
       id="path153" />
    <path
       class="bea5a0fc-33fd-4abe-9c27-42190133ddc3"
       d="M-220.32,602.24h-12.32a2,2,0,0,0-2,2h0V616.6a2,2,0,0,0,2,2h12.32a2,2,0,0,0,2-2V604.28A2,2,0,0,0-220.32,602.24Zm-2,12.32h-8.24v-8.24h8.24Z"
       transform="translate(415.56 185.46)"
       id="path155" />
    <path
       class="bea5a0fc-33fd-4abe-9c27-42190133ddc3"
       d="M-300.06,618.64h12.32a2,2,0,0,0,2-2h0V604.28a2,2,0,0,0-2-2h-12.32a2,2,0,0,0-2,2V616.6A2,2,0,0,0-300.06,618.64Zm2-12.32h8.25v8.24H-298Z"
       transform="translate(415.56 185.46)"
       id="path157" />
    <path
       class="bea5a0fc-33fd-4abe-9c27-42190133ddc3"
       d="M-300.06,685.42h12.32a2,2,0,0,0,2-2h0V671.07a2,2,0,0,0-2-2h-12.32a2,2,0,0,0-2,2v12.32A2,2,0,0,0-300.06,685.42Zm2-12.32h8.25v8.25H-298Z"
       transform="translate(415.56 185.46)"
       id="path159" />
    <path
       class="bea5a0fc-33fd-4abe-9c27-42190133ddc3"
       d="M-276.1,590.6h-35.6a2,2,0,0,0-2,2v35.6a2,2,0,0,0,2,2h35.6a2,2,0,0,0,2-2h0v-35.6a2,2,0,0,0-2-2Zm-2,35.6h-31.53V594.68h31.53Z"
       transform="translate(415.56 185.46)"
       id="path161" />
    <path
       class="bea5a0fc-33fd-4abe-9c27-42190133ddc3"
       d="M-276.1,657.39h-35.6a2,2,0,0,0-2,2V695a2,2,0,0,0,2,2h35.6a2,2,0,0,0,2-2h0v-35.6a2,2,0,0,0-2-2Zm-2,35.6h-31.53V661.46h31.53Z"
       transform="translate(415.56 185.46)"
       id="path163" />
    <path
       class="bea5a0fc-33fd-4abe-9c27-42190133ddc3"
       d="M-264.84,605.45h9.31a2,2,0,0,0,2-2V592.64a2,2,0,0,0-2-2h-9.31a2,2,0,0,0-2,2v10.77A2,2,0,0,0-264.84,605.45Zm2-10.77h5.24v6.69h-5.24Z"
       transform="translate(415.56 185.46)"
       id="path165" />
    <path
       class="bea5a0fc-33fd-4abe-9c27-42190133ddc3"
       d="M-208.68,637.46h-35.2a2,2,0,0,0-2,2v9.32a2,2,0,0,0,2,2h35.2a2,2,0,0,0,2-2v-9.32A2,2,0,0,0-208.68,637.46Zm-2,9.31h-31.13v-5.24h31.13Z"
       transform="translate(415.56 185.46)"
       id="path167" />
    <path
       class="bea5a0fc-33fd-4abe-9c27-42190133ddc3"
       d="M-311.5,650.84h14.24a2,2,0,0,0,2-2v-9.32a2,2,0,0,0-2-2H-311.5a2,2,0,0,0-2,2v9.32A2,2,0,0,0-311.5,650.84Zm2-9.31h10.17v5.24h-10.17Z"
       transform="translate(415.56 185.46)"
       id="path169" />
    <path
       class="bea5a0fc-33fd-4abe-9c27-42190133ddc3"
       d="M-206.64,695.41V658.12a2,2,0,0,0-2-2h-35.2a2,2,0,0,0-2,2v17a2,2,0,0,0,2,2h9.31a2,2,0,0,0,2-2v-5.62H-220v14.59h-33.46v-69a2,2,0,0,0-2-2h-9.31a2,2,0,0,0-2,2V640.8a2,2,0,0,0,2,2,2,2,0,0,0,2-2V617.1h5.24v69a2,2,0,0,0,2,2H-218a2,2,0,0,0,2-2V667.43a2,2,0,0,0-2-2h-16.58a2,2,0,0,0-2,2v5.63h-5.23v-12.9h31.13v33.21h-52.1V679.1a2,2,0,0,0-2-2,2,2,0,0,0-2,2v16.31a2,2,0,0,0,2,2h56.16A2,2,0,0,0-206.64,695.41Z"
       transform="translate(415.56 185.46)"
       id="path171" />
    <path
       class="bea5a0fc-33fd-4abe-9c27-42190133ddc3"
       d="M-264.84,665.13a2,2,0,0,0,2-2v-6.28a2,2,0,0,0-2-2,2,2,0,0,0-2,2v6.28A2,2,0,0,0-264.84,665.13Z"
       transform="translate(415.56 185.46)"
       id="path173" />
    <path
       class="bea5a0fc-33fd-4abe-9c27-42190133ddc3"
       d="M-276.29,650.84a2,2,0,0,0,2-2v-9.32a2,2,0,0,0-2-2h-9.32a2,2,0,0,0-2,2h0v9.32a2,2,0,0,0,2,2h9.32Zm-7.28-9.31h5.24v5.24h-5.24Z"
       transform="translate(415.56 185.46)"
       id="path175" />
    <path
       class="ec5503ae-b2fc-4350-8cf0-207ea5f2789d"
       d="M212.34,318.58h11.24v11.24H212.34Z"
       transform="translate(415.56 185.46)"
       id="path177" />
    <path
       class="ec5503ae-b2fc-4350-8cf0-207ea5f2789d"
       d="M191.05,318.58h11.24v11.24H191.05Z"
       transform="translate(415.56 185.46)"
       id="path179" />
    <path
       class="ec5503ae-b2fc-4350-8cf0-207ea5f2789d"
       d="M191.05,339.67h11.24v11.24H191.05Z"
       transform="translate(415.56 185.46)"
       id="path181" />
    <path
       class="e6e955ec-e082-4119-afd9-8e160ee00eeb"
       d="M195.18,312H184.44v10.74h2.94v-7.8h7.8Z"
       transform="translate(415.56 185.46)"
       id="path183" />
    <path
       class="e6e955ec-e082-4119-afd9-8e160ee00eeb"
       d="M195.18,357.72H184.44V347h2.94v7.8h7.8Z"
       transform="translate(415.56 185.46)"
       id="path185" />
    <path
       class="e6e955ec-e082-4119-afd9-8e160ee00eeb"
       d="M219.45,312h10.74v10.74h-2.94v-7.8h-7.8Z"
       transform="translate(415.56 185.46)"
       id="path187" />
    <path
       class="e6e955ec-e082-4119-afd9-8e160ee00eeb"
       d="M219.45,357.72h10.74V347h-2.94v7.8h-7.8Z"
       transform="translate(415.56 185.46)"
       id="path189" />
    <path
       class="ffafc15d-45ce-401a-977b-63c6adf03024"
       d="M216,322.26h3.89v3.89H216Z"
       transform="translate(415.56 185.46)"
       id="path191" />
    <path
       class="ffafc15d-45ce-401a-977b-63c6adf03024"
       d="M194.73,322.26h3.89v3.89h-3.89Z"
       transform="translate(415.56 185.46)"
       id="path193" />
    <path
       class="ffafc15d-45ce-401a-977b-63c6adf03024"
       d="M194.73,343.34h3.89v3.89h-3.89Z"
       transform="translate(415.56 185.46)"
       id="path195" />
    <path
       class="ec5503ae-b2fc-4350-8cf0-207ea5f2789d"
       d="M205.84,318.58h2.94V322h-2.94Z"
       transform="translate(415.56 185.46)"
       id="path197" />
    <path
       class="ec5503ae-b2fc-4350-8cf0-207ea5f2789d"
       d="M212.46,333.37h11.12v2.94H212.46Z"
       transform="translate(415.56 185.46)"
       id="path199" />
    <path
       class="ec5503ae-b2fc-4350-8cf0-207ea5f2789d"
       d="M191.11,333.37h4.5v2.94h-4.5Z"
       transform="translate(415.56 185.46)"
       id="path201" />
    <path
       class="ec5503ae-b2fc-4350-8cf0-207ea5f2789d"
       d="M212.46,339.25v5.36h2.94v-2.42h5.24v5.9H208.78V325.66h-2.94V351h17.74V339.25Z"
       transform="translate(415.56 185.46)"
       id="path203" />
    <path
       class="ec5503ae-b2fc-4350-8cf0-207ea5f2789d"
       d="M199.29,333.37h2.94v2.94h-2.94Z"
       transform="translate(415.56 185.46)"
       id="path205" />
    <path
       class="bea5a0fc-33fd-4abe-9c27-42190133ddc3"
       d="M184.44,323.36h2.94a.65.65,0,0,0,.64-.65v-7.16h7.16a.65.65,0,0,0,.65-.64V312a.65.65,0,0,0-.65-.65H184.44a.65.65,0,0,0-.65.65v10.74A.65.65,0,0,0,184.44,323.36Zm.64-10.75h9.46v1.65h-7.16a.65.65,0,0,0-.65.65v7.16h-1.65Z"
       transform="translate(415.56 185.46)"
       id="path207" />
    <path
       class="bea5a0fc-33fd-4abe-9c27-42190133ddc3"
       d="M195.18,354.14H188V347a.65.65,0,0,0-.64-.65h-2.94a.65.65,0,0,0-.65.65v10.74a.65.65,0,0,0,.65.65h10.74a.65.65,0,0,0,.65-.65v-2.94a.65.65,0,0,0-.65-.64Zm-.64,2.94h-9.46v-9.46h1.65v7.16a.65.65,0,0,0,.65.65h7.16Z"
       transform="translate(415.56 185.46)"
       id="path209" />
    <path
       class="bea5a0fc-33fd-4abe-9c27-42190133ddc3"
       d="M230.19,311.32H219.45a.65.65,0,0,0-.65.65v2.94a.65.65,0,0,0,.65.64h7.16v7.16a.65.65,0,0,0,.64.65h2.94a.65.65,0,0,0,.65-.65V312A.65.65,0,0,0,230.19,311.32Zm-.64,10.75H227.9v-7.16a.65.65,0,0,0-.65-.65h-7.16v-1.65h9.46Z"
       transform="translate(415.56 185.46)"
       id="path211" />
    <path
       class="bea5a0fc-33fd-4abe-9c27-42190133ddc3"
       d="M230.19,346.33h-2.94a.65.65,0,0,0-.64.65v7.16h-7.16a.65.65,0,0,0-.65.64h0v2.94a.65.65,0,0,0,.65.65h8.31a.65.65,0,0,0,0-1.29h-7.67v-1.65h7.16a.65.65,0,0,0,.65-.65v-7.16h1.65v7.48a.65.65,0,1,0,1.29,0V347A.65.65,0,0,0,230.19,346.33Z"
       transform="translate(415.56 185.46)"
       id="path213" />
    <path
       class="bea5a0fc-33fd-4abe-9c27-42190133ddc3"
       d="M212.34,330.46h11.24a.64.64,0,0,0,.64-.64V318.58a.64.64,0,0,0-.64-.64H212.34a.65.65,0,0,0-.65.64h0v11.24a.64.64,0,0,0,.65.64Zm.64-11.24h10v10H213Z"
       transform="translate(415.56 185.46)"
       id="path215" />
    <path
       class="bea5a0fc-33fd-4abe-9c27-42190133ddc3"
       d="M219.9,321.61H216a.65.65,0,0,0-.64.65h0v3.89a.64.64,0,0,0,.64.64h3.89a.65.65,0,0,0,.65-.64v-3.89A.65.65,0,0,0,219.9,321.61Zm-.64,3.89h-2.6v-2.6h2.6Z"
       transform="translate(415.56 185.46)"
       id="path217" />
    <path
       class="bea5a0fc-33fd-4abe-9c27-42190133ddc3"
       d="M194.73,326.79h3.89a.64.64,0,0,0,.64-.64h0v-3.89a.65.65,0,0,0-.64-.65h-3.89a.65.65,0,0,0-.65.65v3.89A.65.65,0,0,0,194.73,326.79Zm.64-3.89H198v2.6h-2.6Z"
       transform="translate(415.56 185.46)"
       id="path219" />
    <path
       class="bea5a0fc-33fd-4abe-9c27-42190133ddc3"
       d="M194.73,347.88h3.89a.65.65,0,0,0,.64-.65h0v-3.89a.64.64,0,0,0-.64-.64h-3.89a.65.65,0,0,0-.65.64v3.89A.65.65,0,0,0,194.73,347.88Zm.64-3.89H198v2.6h-2.6Z"
       transform="translate(415.56 185.46)"
       id="path221" />
    <path
       class="bea5a0fc-33fd-4abe-9c27-42190133ddc3"
       d="M202.29,317.94H191.05a.64.64,0,0,0-.64.64v11.24a.64.64,0,0,0,.64.64h11.24a.65.65,0,0,0,.65-.64h0V318.58a.65.65,0,0,0-.65-.64Zm-.64,11.24h-10v-10h10Z"
       transform="translate(415.56 185.46)"
       id="path223" />
    <path
       class="bea5a0fc-33fd-4abe-9c27-42190133ddc3"
       d="M202.29,339H191.05a.65.65,0,0,0-.64.65v11.24a.64.64,0,0,0,.64.64h11.24a.65.65,0,0,0,.65-.64h0V339.67a.65.65,0,0,0-.65-.65Zm-.64,11.24h-10v-9.95h10Z"
       transform="translate(415.56 185.46)"
       id="path225" />
    <path
       class="bea5a0fc-33fd-4abe-9c27-42190133ddc3"
       d="M205.84,322.62h2.94a.64.64,0,0,0,.65-.64v-3.4a.65.65,0,0,0-.65-.64h-2.94a.64.64,0,0,0-.64.64V322A.64.64,0,0,0,205.84,322.62Zm.65-3.4h1.65v2.12h-1.65Z"
       transform="translate(415.56 185.46)"
       id="path227" />
    <path
       class="bea5a0fc-33fd-4abe-9c27-42190133ddc3"
       d="M223.58,332.73H212.46a.64.64,0,0,0-.64.64v2.94a.65.65,0,0,0,.64.65h11.12a.65.65,0,0,0,.64-.65v-2.94A.64.64,0,0,0,223.58,332.73Zm-.65,2.94h-9.82V334h9.82Z"
       transform="translate(415.56 185.46)"
       id="path229" />
    <path
       class="bea5a0fc-33fd-4abe-9c27-42190133ddc3"
       d="M191.11,337h4.5a.64.64,0,0,0,.64-.65v-2.94a.64.64,0,0,0-.64-.64h-4.5a.64.64,0,0,0-.64.64v2.94A.65.65,0,0,0,191.11,337Zm.65-2.94H195v1.65h-3.21Z"
       transform="translate(415.56 185.46)"
       id="path231" />
    <path
       class="bea5a0fc-33fd-4abe-9c27-42190133ddc3"
       d="M224.22,351V339.25a.64.64,0,0,0-.64-.64H212.46a.64.64,0,0,0-.64.64v5.36a.65.65,0,0,0,.64.65h2.94a.65.65,0,0,0,.65-.65v-1.77H220v4.6H209.43V325.66a.64.64,0,0,0-.65-.64h-2.94a.64.64,0,0,0-.64.64v8.13a.65.65,0,0,0,1.29,0V326.3h1.65v21.79a.64.64,0,0,0,.64.64h11.86a.64.64,0,0,0,.64-.64v-5.9a.64.64,0,0,0-.64-.64H215.4a.64.64,0,0,0-.64.64V344h-1.65V339.9h9.82v10.48H206.49v-4.5a.65.65,0,1,0-1.29,0V351a.64.64,0,0,0,.64.64h17.74A.64.64,0,0,0,224.22,351Z"
       transform="translate(415.56 185.46)"
       id="path233" />
    <path
       class="bea5a0fc-33fd-4abe-9c27-42190133ddc3"
       d="M205.84,341.47a.65.65,0,0,0,.65-.65v-2a.65.65,0,0,0-1.29,0v2A.65.65,0,0,0,205.84,341.47Z"
       transform="translate(415.56 185.46)"
       id="path235" />
    <path
       class="bea5a0fc-33fd-4abe-9c27-42190133ddc3"
       d="M202.23,337a.65.65,0,0,0,.64-.65v-2.94a.64.64,0,0,0-.64-.64h-2.94a.64.64,0,0,0-.64.64h0v2.94a.64.64,0,0,0,.64.65h2.94Zm-2.3-2.94h1.66v1.65h-1.66Z"
       transform="translate(415.56 185.46)"
       id="path237" />
    <path
       class="ec5503ae-b2fc-4350-8cf0-207ea5f2789d"
       d="M-86.27,136.56H-75V147.8H-86.27Z"
       transform="translate(415.56 185.46)"
       id="path239" />
    <path
       class="ec5503ae-b2fc-4350-8cf0-207ea5f2789d"
       d="M-107.56,136.56h11.24V147.8h-11.24Z"
       transform="translate(415.56 185.46)"
       id="path241" />
    <path
       class="ec5503ae-b2fc-4350-8cf0-207ea5f2789d"
       d="M-107.56,157.65h11.24v11.24h-11.24Z"
       transform="translate(415.56 185.46)"
       id="path243" />
    <path
       class="e6e955ec-e082-4119-afd9-8e160ee00eeb"
       d="M-103.43,130h-10.74V140.7h2.94v-7.81h7.8Z"
       transform="translate(415.56 185.46)"
       id="path245" />
    <path
       class="e6e955ec-e082-4119-afd9-8e160ee00eeb"
       d="M-103.43,175.71h-10.74V165h2.94v7.81h7.8Z"
       transform="translate(415.56 185.46)"
       id="path247" />
    <path
       class="e6e955ec-e082-4119-afd9-8e160ee00eeb"
       d="M-79.16,130h10.74V140.7h-2.94v-7.81h-7.8Z"
       transform="translate(415.56 185.46)"
       id="path249" />
    <path
       class="e6e955ec-e082-4119-afd9-8e160ee00eeb"
       d="M-79.16,175.71h10.74V165h-2.94v7.81h-7.8Z"
       transform="translate(415.56 185.46)"
       id="path251" />
    <path
       class="ffafc15d-45ce-401a-977b-63c6adf03024"
       d="M-82.6,140.24h3.89v3.89H-82.6Z"
       transform="translate(415.56 185.46)"
       id="path253" />
    <path
       class="ffafc15d-45ce-401a-977b-63c6adf03024"
       d="M-103.88,140.24H-100v3.89h-3.89Z"
       transform="translate(415.56 185.46)"
       id="path255" />
    <path
       class="ffafc15d-45ce-401a-977b-63c6adf03024"
       d="M-103.88,161.33H-100v3.88h-3.89Z"
       transform="translate(415.56 185.46)"
       id="path257" />
    <path
       class="ec5503ae-b2fc-4350-8cf0-207ea5f2789d"
       d="M-92.77,136.56h2.94V140h-2.94Z"
       transform="translate(415.56 185.46)"
       id="path259" />
    <path
       class="ec5503ae-b2fc-4350-8cf0-207ea5f2789d"
       d="M-86.15,151.36H-75v2.94H-86.15Z"
       transform="translate(415.56 185.46)"
       id="path261" />
    <path
       class="ec5503ae-b2fc-4350-8cf0-207ea5f2789d"
       d="M-107.5,151.36h4.5v2.94h-4.5Z"
       transform="translate(415.56 185.46)"
       id="path263" />
    <path
       class="ec5503ae-b2fc-4350-8cf0-207ea5f2789d"
       d="M-86.15,157.24v5.36h2.94v-2.42H-78v5.89H-89.83V143.64h-2.94V169H-75V157.24Z"
       transform="translate(415.56 185.46)"
       id="path265" />
    <path
       class="ec5503ae-b2fc-4350-8cf0-207ea5f2789d"
       d="M-99.32,151.36h2.94v2.94h-2.94Z"
       transform="translate(415.56 185.46)"
       id="path267" />
    <path
       class="bea5a0fc-33fd-4abe-9c27-42190133ddc3"
       d="M-114.17,141.34h2.94a.65.65,0,0,0,.64-.65v-7.16h7.16a.65.65,0,0,0,.65-.64V130a.64.64,0,0,0-.65-.64h-10.74a.64.64,0,0,0-.65.64v10.74A.65.65,0,0,0-114.17,141.34Zm.64-10.75h9.46v1.66h-7.16a.64.64,0,0,0-.65.64v7.16h-1.65Z"
       transform="translate(415.56 185.46)"
       id="path269" />
    <path
       class="bea5a0fc-33fd-4abe-9c27-42190133ddc3"
       d="M-103.43,172.12h-7.16V165a.64.64,0,0,0-.64-.64h-2.94a.64.64,0,0,0-.65.64v10.75a.65.65,0,0,0,.65.64h10.74a.65.65,0,0,0,.65-.64v-2.94a.65.65,0,0,0-.65-.65Zm-.64,2.94h-9.46V165.6h1.65v7.17a.65.65,0,0,0,.65.64h7.16Z"
       transform="translate(415.56 185.46)"
       id="path271" />
    <path
       class="bea5a0fc-33fd-4abe-9c27-42190133ddc3"
       d="M-68.42,129.31H-79.16a.64.64,0,0,0-.65.64v2.94a.65.65,0,0,0,.65.64H-72v7.16a.65.65,0,0,0,.64.65h2.94a.65.65,0,0,0,.65-.65V130A.64.64,0,0,0-68.42,129.31Zm-.64,10.74h-1.65v-7.16a.64.64,0,0,0-.65-.64h-7.16v-1.66h9.46Z"
       transform="translate(415.56 185.46)"
       id="path273" />
    <path
       class="bea5a0fc-33fd-4abe-9c27-42190133ddc3"
       d="M-68.42,164.32h-2.94A.64.64,0,0,0-72,165v7.16h-7.16a.65.65,0,0,0-.65.65h0v2.94a.65.65,0,0,0,.65.64h8.31a.64.64,0,0,0,.64-.64.65.65,0,0,0-.64-.65h-7.67v-1.65h7.16a.65.65,0,0,0,.65-.64V165.6h1.65v7.49a.64.64,0,0,0,.64.64.65.65,0,0,0,.65-.64V165A.64.64,0,0,0-68.42,164.32Z"
       transform="translate(415.56 185.46)"
       id="path275" />
    <path
       class="bea5a0fc-33fd-4abe-9c27-42190133ddc3"
       d="M-86.27,148.45H-75a.65.65,0,0,0,.64-.65V136.56a.64.64,0,0,0-.64-.64H-86.27a.65.65,0,0,0-.65.64h0V147.8a.65.65,0,0,0,.65.65Zm.64-11.24h9.95v9.95h-9.95Z"
       transform="translate(415.56 185.46)"
       id="path277" />
    <path
       class="bea5a0fc-33fd-4abe-9c27-42190133ddc3"
       d="M-78.71,139.6H-82.6a.64.64,0,0,0-.64.64h0v3.89a.64.64,0,0,0,.64.64h3.89a.65.65,0,0,0,.65-.64v-3.89A.64.64,0,0,0-78.71,139.6Zm-.64,3.89h-2.6v-2.61h2.6Z"
       transform="translate(415.56 185.46)"
       id="path279" />
    <path
       class="bea5a0fc-33fd-4abe-9c27-42190133ddc3"
       d="M-103.88,144.77H-100a.64.64,0,0,0,.64-.64h0v-3.89a.64.64,0,0,0-.64-.64h-3.89a.64.64,0,0,0-.65.64v3.89A.65.65,0,0,0-103.88,144.77Zm.64-3.89h2.6v2.61h-2.6Z"
       transform="translate(415.56 185.46)"
       id="path281" />
    <path
       class="bea5a0fc-33fd-4abe-9c27-42190133ddc3"
       d="M-103.88,165.86H-100a.64.64,0,0,0,.64-.64h0v-3.88a.65.65,0,0,0-.64-.65h-3.89a.65.65,0,0,0-.65.65v3.88A.65.65,0,0,0-103.88,165.86Zm.64-3.89h2.6v2.6h-2.6Z"
       transform="translate(415.56 185.46)"
       id="path283" />
    <path
       class="bea5a0fc-33fd-4abe-9c27-42190133ddc3"
       d="M-96.32,135.92h-11.24a.64.64,0,0,0-.64.64V147.8a.65.65,0,0,0,.64.65h11.24a.64.64,0,0,0,.64-.65h0V136.56a.64.64,0,0,0-.64-.64ZM-97,147.16h-10v-9.95h10Z"
       transform="translate(415.56 185.46)"
       id="path285" />
    <path
       class="bea5a0fc-33fd-4abe-9c27-42190133ddc3"
       d="M-96.32,157h-11.24a.64.64,0,0,0-.64.64v11.24a.64.64,0,0,0,.64.64h11.24a.63.63,0,0,0,.64-.64h0V157.65a.63.63,0,0,0-.64-.64ZM-97,168.25h-10v-10h10Z"
       transform="translate(415.56 185.46)"
       id="path287" />
    <path
       class="bea5a0fc-33fd-4abe-9c27-42190133ddc3"
       d="M-92.77,140.61h2.94a.65.65,0,0,0,.65-.65v-3.4a.65.65,0,0,0-.65-.64h-2.94a.64.64,0,0,0-.64.64V140A.65.65,0,0,0-92.77,140.61Zm.65-3.4h1.65v2.11h-1.65Z"
       transform="translate(415.56 185.46)"
       id="path289" />
    <path
       class="bea5a0fc-33fd-4abe-9c27-42190133ddc3"
       d="M-75,150.71H-86.15a.65.65,0,0,0-.64.65v2.94a.64.64,0,0,0,.64.64H-75a.64.64,0,0,0,.64-.64v-2.94A.65.65,0,0,0-75,150.71Zm-.65,2.94H-85.5V152h9.82Z"
       transform="translate(415.56 185.46)"
       id="path291" />
    <path
       class="bea5a0fc-33fd-4abe-9c27-42190133ddc3"
       d="M-107.5,154.94h4.5a.64.64,0,0,0,.64-.64v-2.94a.64.64,0,0,0-.64-.65h-4.5a.65.65,0,0,0-.64.65v2.94A.64.64,0,0,0-107.5,154.94Zm.65-2.94h3.21v1.65h-3.21Z"
       transform="translate(415.56 185.46)"
       id="path293" />
    <path
       class="bea5a0fc-33fd-4abe-9c27-42190133ddc3"
       d="M-74.39,169V157.24a.65.65,0,0,0-.64-.65H-86.15a.65.65,0,0,0-.64.65v5.36a.64.64,0,0,0,.64.64h2.94a.65.65,0,0,0,.65-.64v-1.78h3.94v4.61H-89.18V143.64a.65.65,0,0,0-.65-.64h-2.94a.64.64,0,0,0-.64.64v8.13a.64.64,0,0,0,.64.64.64.64,0,0,0,.65-.64v-7.49h1.65v21.79a.64.64,0,0,0,.64.64H-78a.64.64,0,0,0,.64-.64v-5.89a.65.65,0,0,0-.64-.65h-5.24a.65.65,0,0,0-.64.65V162H-85.5v-4.07h9.82v10.49H-92.12v-4.51a.65.65,0,0,0-.65-.64.64.64,0,0,0-.64.64V169a.64.64,0,0,0,.64.64H-75A.64.64,0,0,0-74.39,169Z"
       transform="translate(415.56 185.46)"
       id="path295" />
    <path
       class="bea5a0fc-33fd-4abe-9c27-42190133ddc3"
       d="M-92.77,159.45a.65.65,0,0,0,.65-.64v-2a.65.65,0,0,0-.65-.64.64.64,0,0,0-.64.64v2A.64.64,0,0,0-92.77,159.45Z"
       transform="translate(415.56 185.46)"
       id="path297" />
    <path
       class="bea5a0fc-33fd-4abe-9c27-42190133ddc3"
       d="M-96.38,154.94a.64.64,0,0,0,.64-.64v-2.94a.65.65,0,0,0-.64-.65h-2.94a.64.64,0,0,0-.64.65h0v2.94a.64.64,0,0,0,.64.64h2.94Zm-2.3-2.94H-97v1.65h-1.66Z"
       transform="translate(415.56 185.46)"
       id="path299" />
    <path
       class="ec5503ae-b2fc-4350-8cf0-207ea5f2789d"
       d="M546.19,315h11.24v11.24H546.19Z"
       transform="translate(415.56 185.46)"
       id="path301" />
    <path
       class="ec5503ae-b2fc-4350-8cf0-207ea5f2789d"
       d="M524.9,315h11.24v11.24H524.9Z"
       transform="translate(415.56 185.46)"
       id="path303" />
    <path
       class="ec5503ae-b2fc-4350-8cf0-207ea5f2789d"
       d="M524.9,336.11h11.24v11.24H524.9Z"
       transform="translate(415.56 185.46)"
       id="path305" />
    <path
       class="e6e955ec-e082-4119-afd9-8e160ee00eeb"
       d="M529,308.41H518.28v10.75h2.94v-7.81H529Z"
       transform="translate(415.56 185.46)"
       id="path307" />
    <path
       class="e6e955ec-e082-4119-afd9-8e160ee00eeb"
       d="M529,354.17H518.28V343.42h2.94v7.81H529Z"
       transform="translate(415.56 185.46)"
       id="path309" />
    <path
       class="e6e955ec-e082-4119-afd9-8e160ee00eeb"
       d="M553.29,308.41H564v10.75H561.1v-7.81h-7.81Z"
       transform="translate(415.56 185.46)"
       id="path311" />
    <path
       class="e6e955ec-e082-4119-afd9-8e160ee00eeb"
       d="M553.29,354.17H564V343.42H561.1v7.81h-7.81Z"
       transform="translate(415.56 185.46)"
       id="path313" />
    <path
       class="ffafc15d-45ce-401a-977b-63c6adf03024"
       d="M549.86,318.7h3.89v3.89h-3.89Z"
       transform="translate(415.56 185.46)"
       id="path315" />
    <path
       class="ffafc15d-45ce-401a-977b-63c6adf03024"
       d="M528.57,318.7h3.89v3.89h-3.89Z"
       transform="translate(415.56 185.46)"
       id="path317" />
    <path
       class="ffafc15d-45ce-401a-977b-63c6adf03024"
       d="M528.57,339.79h3.89v3.89h-3.89Z"
       transform="translate(415.56 185.46)"
       id="path319" />
    <path
       class="ec5503ae-b2fc-4350-8cf0-207ea5f2789d"
       d="M539.69,315h2.94v3.4h-2.94Z"
       transform="translate(415.56 185.46)"
       id="path321" />
    <path
       class="ec5503ae-b2fc-4350-8cf0-207ea5f2789d"
       d="M546.31,329.82h11.12v2.94H546.31Z"
       transform="translate(415.56 185.46)"
       id="path323" />
    <path
       class="ec5503ae-b2fc-4350-8cf0-207ea5f2789d"
       d="M525,329.82h4.5v2.94H525Z"
       transform="translate(415.56 185.46)"
       id="path325" />
    <path
       class="ec5503ae-b2fc-4350-8cf0-207ea5f2789d"
       d="M546.31,335.7v5.36h2.94v-2.42h5.24v5.89H542.63V322.11h-2.94v25.36h17.74V335.7Z"
       transform="translate(415.56 185.46)"
       id="path327" />
    <path
       class="ec5503ae-b2fc-4350-8cf0-207ea5f2789d"
       d="M533.14,329.82h2.94v2.94h-2.94Z"
       transform="translate(415.56 185.46)"
       id="path329" />
    <path
       class="bea5a0fc-33fd-4abe-9c27-42190133ddc3"
       d="M518.28,319.8h2.94a.65.65,0,0,0,.65-.64V312H529a.64.64,0,0,0,.64-.65v-2.94a.64.64,0,0,0-.64-.64H518.28a.64.64,0,0,0-.64.64v10.75A.64.64,0,0,0,518.28,319.8Zm.65-10.74h9.46v1.65h-7.17a.64.64,0,0,0-.64.64v7.17h-1.65Z"
       transform="translate(415.56 185.46)"
       id="path331" />
    <path
       class="bea5a0fc-33fd-4abe-9c27-42190133ddc3"
       d="M529,350.59h-7.16v-7.17a.65.65,0,0,0-.65-.64h-2.94a.64.64,0,0,0-.64.64v10.75a.64.64,0,0,0,.64.64H529a.64.64,0,0,0,.64-.64v-2.94a.63.63,0,0,0-.64-.64Zm-.64,2.94h-9.46v-9.46h1.65v7.16a.64.64,0,0,0,.64.64h7.17Z"
       transform="translate(415.56 185.46)"
       id="path333" />
    <path
       class="bea5a0fc-33fd-4abe-9c27-42190133ddc3"
       d="M564,307.77H553.29a.64.64,0,0,0-.64.64v2.94a.65.65,0,0,0,.64.65h7.17v7.16a.64.64,0,0,0,.64.64H564a.64.64,0,0,0,.64-.64V308.41A.64.64,0,0,0,564,307.77Zm-.64,10.75h-1.66v-7.17a.64.64,0,0,0-.64-.64h-7.16v-1.65h9.46Z"
       transform="translate(415.56 185.46)"
       id="path335" />
    <path
       class="bea5a0fc-33fd-4abe-9c27-42190133ddc3"
       d="M564,342.78H561.1a.64.64,0,0,0-.64.64v7.17h-7.17a.64.64,0,0,0-.64.64h0v2.94a.64.64,0,0,0,.64.64h8.32a.64.64,0,0,0,.64-.64.64.64,0,0,0-.64-.64h-7.67v-1.66h7.16a.64.64,0,0,0,.64-.64v-7.16h1.66v7.48a.64.64,0,1,0,1.28,0v-8.13A.64.64,0,0,0,564,342.78Z"
       transform="translate(415.56 185.46)"
       id="path337" />
    <path
       class="bea5a0fc-33fd-4abe-9c27-42190133ddc3"
       d="M546.19,326.91h11.24a.64.64,0,0,0,.64-.64V315a.64.64,0,0,0-.64-.64H546.19a.63.63,0,0,0-.65.64h0v11.24a.64.64,0,0,0,.64.64Zm.64-11.24h9.95v10h-9.95Z"
       transform="translate(415.56 185.46)"
       id="path339" />
    <path
       class="bea5a0fc-33fd-4abe-9c27-42190133ddc3"
       d="M553.75,318.06h-3.89a.64.64,0,0,0-.64.64h0v3.89a.64.64,0,0,0,.64.65h3.89a.64.64,0,0,0,.64-.65V318.7A.64.64,0,0,0,553.75,318.06Zm-.64,3.89H550.5v-2.6h2.61Z"
       transform="translate(415.56 185.46)"
       id="path341" />
    <path
       class="bea5a0fc-33fd-4abe-9c27-42190133ddc3"
       d="M528.57,323.24h3.89a.65.65,0,0,0,.65-.65h0V318.7a.65.65,0,0,0-.65-.64h-3.89a.64.64,0,0,0-.64.64v3.89A.65.65,0,0,0,528.57,323.24Zm.65-3.89h2.6V322h-2.6Z"
       transform="translate(415.56 185.46)"
       id="path343" />
    <path
       class="bea5a0fc-33fd-4abe-9c27-42190133ddc3"
       d="M528.57,344.32h3.89a.65.65,0,0,0,.65-.64h0v-3.89a.64.64,0,0,0-.65-.64h-3.89a.64.64,0,0,0-.64.64v3.89A.64.64,0,0,0,528.57,344.32Zm.65-3.89h2.6V343h-2.6Z"
       transform="translate(415.56 185.46)"
       id="path345" />
    <path
       class="bea5a0fc-33fd-4abe-9c27-42190133ddc3"
       d="M536.14,314.39H524.9a.63.63,0,0,0-.64.64v11.24a.64.64,0,0,0,.64.64h11.24a.64.64,0,0,0,.64-.64h0V315a.64.64,0,0,0-.64-.64Zm-.64,11.24h-10v-10h10Z"
       transform="translate(415.56 185.46)"
       id="path347" />
    <path
       class="bea5a0fc-33fd-4abe-9c27-42190133ddc3"
       d="M536.14,335.47H524.9a.64.64,0,0,0-.64.64v11.24a.64.64,0,0,0,.64.65h11.24a.64.64,0,0,0,.64-.64h0V336.11a.64.64,0,0,0-.64-.64Zm-.64,11.24h-10v-9.95h10Z"
       transform="translate(415.56 185.46)"
       id="path349" />
    <path
       class="bea5a0fc-33fd-4abe-9c27-42190133ddc3"
       d="M539.69,319.07h2.94a.65.65,0,0,0,.65-.64V315a.64.64,0,0,0-.65-.64h-2.94a.64.64,0,0,0-.64.64v3.4A.64.64,0,0,0,539.69,319.07Zm.65-3.4H542v2.11h-1.65Z"
       transform="translate(415.56 185.46)"
       id="path351" />
    <path
       class="bea5a0fc-33fd-4abe-9c27-42190133ddc3"
       d="M557.43,329.18H546.31a.64.64,0,0,0-.64.64v2.94a.64.64,0,0,0,.64.64h11.12a.64.64,0,0,0,.64-.64v-2.94A.64.64,0,0,0,557.43,329.18Zm-.65,2.94H547v-1.66h9.83Z"
       transform="translate(415.56 185.46)"
       id="path353" />
    <path
       class="bea5a0fc-33fd-4abe-9c27-42190133ddc3"
       d="M525,333.4h4.5a.64.64,0,0,0,.64-.64v-2.94a.64.64,0,0,0-.64-.64H525a.64.64,0,0,0-.64.64v2.94A.64.64,0,0,0,525,333.4Zm.65-2.94h3.21v1.66h-3.21Z"
       transform="translate(415.56 185.46)"
       id="path355" />
    <path
       class="bea5a0fc-33fd-4abe-9c27-42190133ddc3"
       d="M558.07,347.47V335.7a.64.64,0,0,0-.64-.64H546.31a.64.64,0,0,0-.64.64v5.36a.64.64,0,0,0,.64.64h2.94a.63.63,0,0,0,.64-.64v-1.78h4v4.61H543.28V322.11a.65.65,0,0,0-.65-.65h-2.94a.65.65,0,0,0-.64.65v8.12a.65.65,0,1,0,1.29,0v-7.48H542v21.78a.65.65,0,0,0,.64.65h11.86a.65.65,0,0,0,.64-.65v-5.89a.64.64,0,0,0-.64-.64h-5.24a.64.64,0,0,0-.64.64v1.78H547v-4.08h9.83v10.49H540.34v-4.51a.65.65,0,0,0-1.29,0v5.15a.65.65,0,0,0,.64.65h17.74A.65.65,0,0,0,558.07,347.47Z"
       transform="translate(415.56 185.46)"
       id="path357" />
    <path
       class="bea5a0fc-33fd-4abe-9c27-42190133ddc3"
       d="M539.69,337.91a.64.64,0,0,0,.65-.64v-2a.65.65,0,0,0-1.29,0v2A.64.64,0,0,0,539.69,337.91Z"
       transform="translate(415.56 185.46)"
       id="path359" />
    <path
       class="bea5a0fc-33fd-4abe-9c27-42190133ddc3"
       d="M536.08,333.4a.64.64,0,0,0,.64-.64v-2.94a.64.64,0,0,0-.64-.64h-2.94a.65.65,0,0,0-.65.64h0v2.94a.64.64,0,0,0,.65.64h2.94Zm-2.3-2.94h1.65v1.66h-1.65Z"
       transform="translate(415.56 185.46)"
       id="path361" />
  </g>
  <path
     style="fill:#ff9800;fill-opacity:0;stroke:none;stroke-width:2.25601697;stroke-opacity:1"
     d="m 77.628627,451.07756 c 0.12984,-6.66732 9.385159,-43.18619 15.787154,-62.29163 C 139.49098,251.28395 260.37735,135.2362 398.66865,95.751181 439.79299,84.009334 460.11368,80.459377 502.25722,77.654598 657.11943,67.348054 803.46029,133.01807 899.1726,255.76916 c 39.68241,50.89273 72.0161,118.92986 85.20773,179.29576 l 4.1778,19.11789 -5.97781,-1.43156 c -3.28778,-0.78737 -6.05093,-1.54257 -6.14029,-1.67823 -0.0893,-0.13558 -3.0352,-5.25861 -6.54626,-11.38435 -18.24728,-31.83608 -50.24879,-50.90274 -85.43525,-50.90274 h -13.90943 l -92.47605,-92.49669 c -50.86183,-50.87318 -94.04621,-92.49669 -95.96529,-92.49669 -1.91911,0 -30.02571,26.65898 -62.45918,59.24217 l -58.96992,59.24217 -6.10115,-12.76509 c -3.35562,-7.02079 -9.92947,-17.18265 -14.60854,-22.58189 l -8.50739,-9.81681 -6.67077,6.33059 c -3.66892,3.48182 -10.53822,12.94364 -15.26512,21.02627 l -8.59436,14.6957 -57.71857,-57.68656 c -31.74522,-31.7276 -59.20939,-57.68655 -61.0315,-57.68655 -1.8221,0 -44.45364,41.6643 -94.73674,92.58733 l -91.42382,92.58735 -13.62612,-0.0907 c -36.53052,-0.24301 -70.31324,19.01351 -86.441017,49.27232 -5.15575,9.67319 -8.60913,13.56921 -12.724933,14.356 -3.300431,0.63092 -5.628519,0.0375 -5.599993,-1.42734 z"
     id="path1187"
     inkscape:connector-curvature="0" />
  <path
     style="fill:#feb64c;fill-opacity:0;stroke:none;stroke-width:4;stroke-opacity:1"
     d="M 47.765785,718.26007 C 6.9513446,611.25303 4.2668823,475.37747 40.841164,367.76649 84.630052,238.92828 181.07072,128.62522 303.31341,67.566454 425.83975,6.3660193 575.61907,-2.4928468 705.17007,43.798195 851.54191,96.099642 968.82851,213.42436 1021.5944,360.32539 c 36.8575,102.6116 38.0749,230.53528 3.1875,334.93468 l -10.6936,32 -18.96443,1.21916 c -10.43048,0.67056 -18.94152,-0.2296 -18.9134,-2 0.028,-1.77052 4.41508,-16.88192 9.74888,-33.58088 18.13695,-56.78252 23.90785,-94.039 23.79795,-153.63828 -0.1139,-61.8266 -4.3494,-89.39676 -22.42951,-146 C 964.40339,321.49073 931.34955,265.36166 880.54111,211.92446 657.04447,-23.135541 275.57125,24.239415 114.3921,307.0721 49.426385,421.07211 36.503998,566.11031 79.87966,694.43251 l 11.772464,34.82756 H 71.806753 c -17.965708,0 -20.242752,-1.04188 -24.040968,-11 z"
     id="path1249"
     inkscape:connector-curvature="0" />
  <path
     style="fill:#ffc165;fill-opacity:0;stroke:none;stroke-width:4;stroke-opacity:1"
     d="M 47.765785,718.26007 C 6.9513446,611.25303 4.2668823,475.37747 40.841164,367.76649 84.630052,238.92828 181.07072,128.62522 303.31341,67.566454 425.83975,6.3660193 575.61907,-2.4928468 705.17007,43.798195 851.54191,96.099642 968.82851,213.42436 1021.5944,360.32539 c 36.8575,102.6116 38.0749,230.53528 3.1875,334.93468 l -10.6936,32 -18.96443,1.21916 c -10.43048,0.67056 -18.94152,-0.2296 -18.9134,-2 0.028,-1.77052 4.41508,-16.88192 9.74888,-33.58088 18.13695,-56.78252 23.90785,-94.039 23.79795,-153.63828 -0.1139,-61.8266 -4.3494,-89.39676 -22.42951,-146 C 964.40339,321.49073 931.34955,265.36166 880.54111,211.92446 657.04447,-23.135541 275.57125,24.239415 114.3921,307.0721 49.426385,421.07211 36.503998,566.11031 79.87966,694.43251 l 11.772464,34.82756 H 71.806753 c -17.965708,0 -20.242752,-1.04188 -24.040968,-11 z"
     id="path1253"
     inkscape:connector-curvature="0" />
  <path
     style="fill:#ffffff;fill-opacity:1;stroke:none;stroke-width:4;stroke-opacity:1"
     d="M 47.765785,718.26007 C 6.9513446,611.25303 4.2668823,475.37747 40.841164,367.76649 84.630052,238.92828 181.07072,128.62522 303.31341,67.566454 425.83975,6.3660193 575.61907,-2.4928468 705.17007,43.798195 851.54191,96.099642 968.82851,213.42436 1021.5944,360.32539 c 36.8575,102.6116 38.0749,230.53528 3.1875,334.93468 l -10.6936,32 -18.96443,1.21916 c -10.43048,0.67056 -18.94152,-0.2296 -18.9134,-2 0.028,-1.77052 4.41508,-16.88192 9.74888,-33.58088 18.13695,-56.78252 23.90785,-94.039 23.79795,-153.63828 -0.1139,-61.8266 -4.3494,-89.39676 -22.42951,-146 C 964.40339,321.49073 931.34955,265.36166 880.54111,211.92446 657.04447,-23.135541 275.57125,24.239415 114.3921,307.0721 49.426385,421.07211 36.503998,566.11031 79.87966,694.43251 l 11.772464,34.82756 H 71.806753 c -17.965708,0 -20.242752,-1.04188 -24.040968,-11 z"
     id="path1259"
     inkscape:connector-curvature="0" />
  <path
     style="fill:#ffffff;fill-opacity:1;stroke:none;stroke-width:4;stroke-opacity:1"
     d="M 78.088175,438.34071 C 85.367373,389.79954 119.09392,315.6166 157.35793,263.98355 351.46749,2.0542144 746.71963,13.633634 923.18383,286.4194 c 32.22728,49.81828 64.97556,131.15818 64.97556,161.38579 0,12.42719 -14.00336,7.93209 -19.94024,-6.40085 -11.11804,-26.84128 -44.378,-47.25828 -81.18688,-49.83744 l -20.82388,-1.4591 -91.22292,-93.17736 -91.22292,-93.17737 -61.42608,61.33019 -61.42608,61.33018 -8.2854,-15.57668 c -4.557,-8.56718 -10.99732,-19.03158 -14.31188,-23.25421 -5.67872,-7.23448 -6.45848,-7.28657 -13.51268,-0.90263 -4.11736,3.72619 -10.86192,13.04333 -14.98788,20.70476 l -7.50172,13.92987 -59.04537,-58.94692 -59.04537,-58.94693 -95.03035,94.50484 -95.03035,94.50484 -18.76791,0.26419 c -32.41672,0.45633 -62.24984,18.22571 -77.196714,45.98038 -4.162377,7.72907 -11.009546,14.95284 -15.21593,16.05284 -6.985443,1.82673 -7.409111,0.40715 -4.890661,-16.38708 z"
     id="path1261"
     inkscape:connector-curvature="0" />
  <path
     style="fill:#ffffff;fill-opacity:1;stroke:none;stroke-width:4;stroke-opacity:1"
     d="m 82.686494,657.99765 c -3.589906,-12.79433 -6.527102,-26.25652 -6.527102,-29.91598 0,-4.1599 13.556841,-14.55558 36.172128,-27.73759 33.29041,-19.40431 35.20987,-21.18331 24.09357,-22.33047 -8.26453,-0.85286 -19.84428,3.30491 -36.67164,13.16716 -13.526195,7.92748 -25.528725,13.47797 -26.672289,12.3344 -1.143564,-1.14357 -2.947796,-11.11878 -4.009405,-22.16716 L 67.141559,561.26007 H 531.65047 996.15939 v 15.67285 c 0,29.24898 -1.93044,30.17304 -30.11104,14.41354 -14.98456,-8.37984 -30.59708,-14.05846 -38.53888,-14.01744 -12.342,0.0638 -10.63164,1.68038 22.64992,21.40867 l 36,21.33971 -0.78636,16.88392 c -1.26944,27.25687 -8.42832,44.29875 -18.60884,44.29875 -5.3038,0 -34.05688,-20.56074 -72.68976,-51.97897 -48.45332,-39.4047 -66.6676,-51.98406 -75.29348,-52 l -11.37848,-0.021 15.6274,13 c 8.59508,7.15 36.8844,30.1 62.86516,51 l 47.23776,38 -41.48672,1.17787 -41.48668,1.17787 -15.82248,-17.17787 c -72.30456,-78.49833 -81.99424,-87.7544 -90.53368,-86.48233 -7.58576,1.13 -3.76396,6.65395 28.57664,41.30446 20.53344,22 41.82064,44.95 47.30488,51 l 9.97136,11 -31.74836,-0.13198 -31.74836,-0.13198 -34,-50.86802 c -25.1012,-37.55435 -36.43172,-51.21254 -43.29092,-52.18435 -8.1384,-1.15304 -5.37536,4.55307 22.27436,46 17.36088,26.02398 32.89804,49.56633 34.527,52.31633 2.23708,3.77672 -2.99416,5 -21.38208,5 h -24.34376 l -23.97648,-49 c -13.18704,-26.95 -26.55224,-50.73634 -29.70044,-52.85852 -13.84028,-9.32972 -10.10592,5.57967 13.03232,52.03156 l 24.81944,49.82696 h -21.15016 -21.15016 l -15.5064,-52 c -12.80992,-42.9575 -16.82672,-52 -23.09912,-52 -5.39012,0 -6.964,2.03064 -5.4254,7 1.192,3.85 7.6396,25 14.32796,47 6.6884,22 12.97792,42.25 13.97672,45 1.29384,3.56229 -3.76164,5 -17.5818,5 h -19.39784 l -6.73444,-45 c -8.34572,-55.76685 -9.27748,-59 -17.00368,-59 -6.80644,0 -6.5572,4.10196 4.314,71 l 5.3626,33 h -17.44584 -17.44588 v -52.2933 c 0,-47.64785 -0.62184,-52.17405 -7,-50.95094 -6.15808,1.1809 -7.13464,7.47049 -8.11952,52.29329 l -1.11948,50.95095 h -15.88052 c -18.5928,0 -18.29232,1.52912 -9.82588,-50 7.49392,-45.60999 7.48544,-54 -0.0546,-54 -3.3,0 -6.00576,1.35 -6.01276,3 -0.008,1.65 -2.71904,19.2 -6.02672,39 -3.30764,19.8 -6.98344,41.85 -8.16844,49 -2.05492,12.3987 -2.97876,13 -19.97333,13 -10.39179,0 -17.81875,-1.85098 -17.81875,-4.44087 0,-2.44247 6.4476,-25.09487 14.328,-50.33866 7.8804,-25.24379 13.35804,-46.86777 12.17252,-48.05329 -6.81508,-6.81507 -14.50788,7.43285 -28.28429,52.38561 l -15.46025,50.44721 h -21.40661 -21.40661 l 26.05724,-52 c 23.04108,-45.98092 25.13123,-52 18.05724,-52 -6.25347,0 -13.6887,11.35241 -34.05724,52 l -26.05724,52 h -24.17014 c -18.61423,0 -23.43485,-1.17441 -20.97138,-5.10908 1.75932,-2.80998 15.92428,-23.95998 31.4777,-46.99999 37.26357,-55.20031 35.60706,-51.89093 25.97405,-51.89093 -6.0943,0 -17.17432,13.44322 -42.85886,52 l -34.63972,52 h -32.21004 -32.21003 l 15.92199,-17 c 8.7571,-9.35 30.28187,-32.26544 47.83283,-50.9232 27.19545,-28.91045 30.6705,-34.11169 23.51696,-35.19878 -8.29739,-1.26091 -14.82474,4.84675 -85.80761,80.29035 l -21.79851,23.16838 -41.22885,-1.16838 -41.22884,-1.16837 56.99608,-46 c 31.34784,-25.3 59.80082,-48.19276 63.22884,-50.87279 5.28542,-4.13214 4.40882,-4.87046 -5.76723,-4.85749 -9.44553,0.012 -25.49408,11.05433 -75.39047,51.87279 -39.89786,32.63902 -66.75642,51.85749 -72.472894,51.85749 -7.653855,0 -10.109078,-3.65895 -15.609532,-23.26242 z"
     id="path1269"
     inkscape:connector-curvature="0" />
  <path
     style="fill:#ffffff;fill-opacity:1;stroke:none;stroke-width:4;stroke-opacity:1"
     d="m 444.54632,1043.075 c -65.90958,-11.5591 -137.4688,-39.9112 -192.89409,-76.42552 -40.39978,-26.6155 -41.49465,-29.38941 -11.6001,-29.38941 17.8744,0 27.85956,2.10957 35.48978,7.49797 5.83961,4.12389 23.61117,14.01816 39.49235,21.98727 148.33671,74.43479 313.78493,69.98199 457.86097,-12.32259 28.63564,-16.35834 32.4622,-17.47626 56,-16.36038 l 25.26416,1.19773 -34,22.51375 c -56.52912,37.43183 -105.89044,59.01418 -174,76.07848 -43.25458,10.8371 -153.33952,13.6887 -201.61307,5.2227 z"
     id="path1271"
     inkscape:connector-curvature="0" />
</svg>
