<?xml version="1.0" encoding="UTF-8" standalone="no"?>
<!-- Generator: Adobe Illustrator 18.0.0, SVG Export Plug-In . SVG Version: 6.00 Build 0)  -->

<svg
   xmlns:dc="http://purl.org/dc/elements/1.1/"
   xmlns:cc="http://creativecommons.org/ns#"
   xmlns:rdf="http://www.w3.org/1999/02/22-rdf-syntax-ns#"
   xmlns:svg="http://www.w3.org/2000/svg"
   xmlns="http://www.w3.org/2000/svg"
   xmlns:sodipodi="http://sodipodi.sourceforge.net/DTD/sodipodi-0.dtd"
   xmlns:inkscape="http://www.inkscape.org/namespaces/inkscape"
   version="1.1"
   id="Layer_1"
   x="0px"
   y="0px"
   viewBox="0 0 64 64"
   enable-background="new 0 0 64 64"
   xml:space="preserve"
   sodipodi:docname="tutorial_step_3.svg"
   inkscape:version="0.92.4 5da689c313, 2019-01-14"><metadata
   id="metadata33"><rdf:RDF><cc:Work
       rdf:about=""><dc:format>image/svg+xml</dc:format><dc:type
         rdf:resource="http://purl.org/dc/dcmitype/StillImage" /></cc:Work></rdf:RDF></metadata><defs
   id="defs31" /><sodipodi:namedview
   pagecolor="#ffffff"
   bordercolor="#666666"
   borderopacity="1"
   objecttolerance="10"
   gridtolerance="10"
   guidetolerance="10"
   inkscape:pageopacity="0"
   inkscape:pageshadow="2"
   inkscape:window-width="1920"
   inkscape:window-height="1024"
   id="namedview29"
   showgrid="false"
   inkscape:zoom="10.429825"
   inkscape:cx="36.521727"
   inkscape:cy="17.681674"
   inkscape:window-x="0"
   inkscape:window-y="30"
   inkscape:window-maximized="1"
   inkscape:current-layer="g26" />
<g
   id="g26">
	<g
   id="g6">
		<g
   id="g4">
			<path
   d="M32,0c17.7,0,32,14.3,32,32S49.7,64,32,64S0,49.7,0,32S14.3,0,32,0z"
   id="path2"
   fill="#4CAF50" />
		</g>
	</g>
	
	
	
<path
   style="stroke-width:0.06331272;fill:#f29c1f;fill-opacity:1"
   inkscape:connector-curvature="0"
   d="m 17.691328,17.691328 h 5.698144 v -1.899384 h -7.597527 v 7.597527 h 1.899383 z m 0,0"
   id="path2-6" /><path
   style="stroke-width:0.06331272;fill-opacity:1;fill:#f29c1f"
   inkscape:connector-curvature="0"
   d="m 40.610528,15.791944 v 1.899384 h 5.698144 v 5.698143 h 1.899383 v -7.597527 z m 0,0"
   id="path4" /><path
   style="stroke-width:0.06331272;stroke:none;stroke-opacity:1;fill:#f29c1f;fill-opacity:1"
   inkscape:connector-curvature="0"
   d="m 46.308672,46.308671 h -5.698144 v 1.899384 h 7.597527 v -7.597527 h -1.899383 z m 0,0"
   id="path6" /><path
   style="stroke-width:0.06331272;stroke:none;stroke-opacity:1;fill:#f29c1f;fill-opacity:1"
   inkscape:connector-curvature="0"
   d="m 17.691328,40.610528 h -1.899383 v 7.597527 h 7.597527 v -1.899384 h -5.698143 z m 0,0"
   id="path8" /><path
   style="stroke-width:0.06331272;fill:#f0c419;fill-opacity:1"
   inkscape:connector-curvature="0"
   d="m 19.654018,19.590704 v 9.49691 h 9.496911 v -5.698143 h 1.899383 v -1.899383 h -1.899383 v -1.899384 z m 7.597527,7.597526 h -5.698144 v -5.698143 h 5.698144 z m 0,0"
   id="path10" /><path
   style="stroke-width:0.06331272;stroke:none;stroke-opacity:1;fill:#f0c419;fill-opacity:1"
   inkscape:connector-curvature="0"
   d="m 44.345982,44.282667 v -9.49691 h -3.798767 v -1.899376 h -1.899376 v 1.899376 h -5.698151 v 1.899383 h 1.899384 v 1.899384 H 32.949688 V 40.4839 h 1.899384 v 3.798767 z M 36.748455,36.68514 h 5.698143 v 5.698143 h -5.698143 z m 0,0"
   id="path12" /><path
   style="stroke-width:0.06331272;fill:#f0c419;fill-opacity:1"
   inkscape:connector-curvature="0"
   d="m 25.352161,32.886381 h 3.798768 v -1.899384 h -9.49691 v 1.899384 h 3.798766 v 1.899377 h -1.899384 v 1.899383 h 1.899384 V 40.4839 h -1.899384 v 1.899383 h 1.899384 v 1.899384 h 9.496902 V 42.383283 H 31.050311 V 40.4839 h -1.899383 v 1.899383 H 25.352161 V 40.4839 h 1.899383 v -1.899376 h -1.899383 z m 0,0"
   id="path14" /><path
   style="stroke-width:0.06331272;fill:#f0c419;fill-opacity:1"
   inkscape:connector-curvature="0"
   d="m 23.452785,23.389471 h 1.899376 v 1.899383 h -1.899376 z m 0,0"
   id="path16" /><path
   style="stroke-width:0.06331272;fill:#f0c419;fill-opacity:1"
   inkscape:connector-curvature="0"
   d="m 38.647839,23.389471 h 1.899375 v 1.899383 h -1.899375 z m 0,0"
   id="path18" /><path
   style="stroke-width:0.06331272;fill:#f0c419;fill-opacity:1"
   inkscape:connector-curvature="0"
   d="m 40.547214,29.087614 h 3.798767 v -9.49691 h -9.49691 v 9.49691 h 3.798767 v 1.899383 h 1.899376 z m -3.79876,-1.899384 v -5.698143 h 5.698143 v 5.698143 z m 0,0"
   id="path20" /><path
   style="stroke-width:0.06331272;fill:#f0c419;fill-opacity:1"
   inkscape:connector-curvature="0"
   d="m 44.345982,32.886381 v -1.899384 c -0.459511,0 -3.336037,0 -3.798767,0 v 1.899384 z m 0,0"
   id="path22" /><path
   style="stroke-width:0.06331272;fill:#f0c419;fill-opacity:1"
   inkscape:connector-curvature="0"
   d="m 38.647839,38.584524 h 1.899375 V 40.4839 h -1.899375 z m 0,0"
   id="path24" /><path
   style="stroke-width:0.06331272;fill:#f0c419;fill-opacity:1"
   inkscape:connector-curvature="0"
   d="m 31.050311,36.68514 h 1.899376 v 1.899384 h -1.899376 z m 0,0"
   id="path26" /><path
   style="stroke-width:0.06331272;fill:#f0c419;fill-opacity:1"
   inkscape:connector-curvature="0"
   d="m 27.251545,38.584524 h 1.899384 c 0,-0.45951 0,-3.336036 0,-3.798766 h -1.899384 z m 0,0"
   id="path28" /><path
   style="stroke-width:0.06331272;fill:#f0c419;fill-opacity:1"
   inkscape:connector-curvature="0"
   d="m 29.150928,32.886381 h 1.899383 v 1.899377 h -1.899383 z m 0,0"
   id="path30" /><path
   style="stroke-width:0.06331272;fill:#f0c419;fill-opacity:1"
   inkscape:connector-curvature="0"
   d="m 21.553401,36.68514 h -1.899383 v 3.79876 h 1.899383 c 0,-0.459511 0,-3.336036 0,-3.79876 z m 0,0"
   id="path32" /><path
   style="stroke-width:0.06331272;fill:#f0c419;fill-opacity:1"
   inkscape:connector-curvature="0"
   d="m 19.654018,42.383283 h 1.899383 v 1.899384 h -1.899383 z m 0,0"
   id="path34" /><path
   style="stroke-width:0.06331272;fill:#f0c419;fill-opacity:1"
   inkscape:connector-curvature="0"
   d="m 31.050311,19.590704 h 1.899376 v 1.899383 h -1.899376 z m 0,0"
   id="path36" /><path
   style="stroke-width:0.06331272;fill:#f0c419;fill-opacity:1"
   inkscape:connector-curvature="0"
   d="m 31.050311,27.18823 h 1.899376 c 0,-0.459511 0,-3.336036 0,-3.798759 h -1.899376 z m 0,0"
   id="path38" /><path
   style="stroke-width:0.06331272;fill:#f0c419;fill-opacity:1"
   inkscape:connector-curvature="0"
   d="m 32.949687,30.986997 v -1.899383 h -1.899376 v 3.798767 h 7.597528 v -1.899384 z m 0,0"
   id="path40" /></g>
</svg>