<?xml version="1.0" standalone="no"?>
<!DOCTYPE svg PUBLIC "-//W3C//DTD SVG 20010904//EN"
 "http://www.w3.org/TR/2001/REC-SVG-20010904/DTD/svg10.dtd">
<svg version="1.0" xmlns="http://www.w3.org/2000/svg"
 width="2219.000000pt" height="2219.000000pt" viewBox="0 0 2219.000000 2219.000000"
 preserveAspectRatio="xMidYMid meet">
<metadata>
Created by potrace 1.11, written by Peter Selinger 2001-2013
</metadata>
<g transform="translate(0.000000,2219.000000) scale(0.100000,-0.100000)"
fill="#000000" stroke="none">
<path d="M10810 22184 c-2606 -80 -5019 -1012 -6955 -2688 -773 -669 -1435
-1418 -1997 -2260 -1498 -2247 -2116 -4941 -1753 -7643 108 -804 303 -1581
586 -2340 44 -116 84 -235 90 -265 7 -36 9 -729 8 -2163 -1 -1160 2 -2118 5
-2127 4 -9 15 -20 24 -25 9 -4 699 -8 1532 -8 l1515 0 44 -24 c24 -12 96 -67
160 -120 966 -810 2246 -1519 3496 -1936 1482 -495 3014 -667 4615 -519 2152
199 4253 1066 5935 2450 72 58 150 116 175 128 l45 21 1500 1 c825 0 1512 3
1527 7 21 6 30 16 39 50 9 32 10 546 6 2113 -4 1243 -2 2097 3 2136 5 36 44
159 89 279 636 1721 835 3587 576 5404 -358 2508 -1543 4791 -3390 6529 -1289
1212 -2864 2105 -4560 2586 -781 221 -1587 353 -2440 399 -201 11 -714 20
-875 15z m1005 -313 c553 -43 966 -98 1440 -192 1482 -295 2944 -946 4200
-1869 1665 -1224 2959 -2901 3710 -4805 399 -1011 611 -1989 697 -3210 17
-242 17 -1150 0 -1395 -61 -868 -183 -1588 -393 -2320 -56 -194 -327 -1020
-339 -1033 -10 -11 -381 -36 -533 -37 -100 0 -229 12 -274 26 -10 2 -7 17 8
56 12 29 42 121 66 203 24 83 86 285 138 450 305 979 414 1521 477 2360 18
237 18 1494 0 1740 -50 688 -135 1134 -357 1871 -204 675 -400 1181 -670 1729
-359 727 -780 1356 -1326 1982 -887 1015 -1910 1816 -3074 2407 -1125 572
-2332 917 -3605 1031 -594 53 -1349 45 -1945 -20 -1732 -190 -3373 -820 -4775
-1833 -1069 -773 -1981 -1760 -2695 -2917 -788 -1277 -1263 -2745 -1390 -4295
-95 -1166 9 -2338 306 -3455 70 -261 126 -441 289 -923 77 -228 140 -416 140
-419 0 -2 -159 -3 -352 -1 -391 5 -410 7 -476 71 -41 39 -58 72 -107 202 -359
959 -569 1996 -647 3190 -16 249 -16 1057 0 1295 79 1165 262 2073 608 3015
595 1625 1637 3162 2939 4335 1656 1492 3586 2391 5765 2684 313 43 537 63
1005 90 125 7 1036 -3 1170 -13z m-35 -1251 c639 -51 1137 -130 1705 -271
1985 -494 3736 -1593 5050 -3169 267 -321 605 -791 812 -1130 179 -293 456
-824 608 -1165 371 -829 599 -1535 635 -1970 6 -71 13 -146 16 -165 l6 -35
-84 -2 c-46 -2 -96 2 -113 9 -101 39 -176 127 -265 313 -74 152 -160 274 -280
395 -258 259 -615 449 -1020 544 -144 34 -293 52 -570 71 l-235 16 -46 47
c-26 26 -595 607 -1265 1292 -2132 2179 -2487 2540 -2490 2538 -1 -2 -577
-576 -1279 -1277 -1180 -1179 -1276 -1273 -1289 -1255 -7 10 -43 78 -81 149
-171 328 -342 605 -433 703 -63 68 -89 69 -169 6 -135 -107 -258 -275 -423
-579 -50 -93 -96 -174 -101 -180 -6 -6 -460 441 -1233 1214 -673 673 -1228
1222 -1234 1220 -9 -3 -1072 -1058 -3367 -3341 l-590 -587 -205 -1 c-113 0
-254 -5 -315 -10 -463 -43 -879 -239 -1191 -562 -118 -122 -189 -218 -286
-386 -27 -48 -67 -109 -87 -137 -21 -27 -47 -66 -59 -86 -20 -33 -39 -46 -157
-107 -26 -14 -149 -22 -159 -11 -7 7 24 260 50 417 176 1062 927 2648 1763
3727 937 1209 2101 2158 3451 2814 1117 542 2377 874 3610 951 96 6 200 12
230 14 113 7 960 -3 1090 -14z m4234 -4879 c1055 -1055 1767 -1774 1764 -1782
-2 -8 -76 -50 -164 -94 -237 -119 -374 -215 -530 -370 -245 -245 -410 -544
-519 -943 -19 -67 -37 -127 -40 -132 -10 -16 -62 -12 -186 15 -200 42 -349 58
-559 58 -107 0 -233 -5 -280 -12 -465 -65 -832 -227 -1214 -535 -124 -100
-144 -111 -179 -102 -12 3 -194 178 -404 388 -339 339 -383 387 -383 415 0 17
20 73 43 124 142 305 206 564 207 826 0 104 -2 113 -21 124 -29 15 -127 4
-264 -31 -189 -47 -333 -113 -532 -242 -103 -67 -127 -79 -157 -76 -32 3 -68
35 -331 297 -197 197 -302 309 -316 338 -19 39 -21 64 -24 295 -3 279 -12 342
-81 623 -25 104 -35 161 -30 181 5 21 333 355 1194 1217 939 939 1192 1187
1212 1187 20 0 391 -367 1794 -1769z m-6871 622 c626 -626 1145 -1150 1153
-1165 22 -42 17 -96 -21 -229 -165 -573 -118 -1159 116 -1451 67 -84 137 -141
234 -189 73 -35 212 -79 255 -79 10 0 29 -9 44 -21 l26 -20 0 -854 c0 -829 -1
-854 -19 -860 -15 -4 -96 72 -388 367 -507 513 -533 541 -533 566 0 13 11 49
25 81 57 137 54 284 -10 420 -45 95 -90 156 -190 260 -253 263 -561 441 -884
511 -111 25 -212 34 -230 21 -33 -22 -22 -265 19 -461 49 -228 188 -561 310
-739 105 -153 264 -288 394 -333 63 -21 166 -23 232 -3 102 31 51 72 671 -547
394 -394 570 -576 584 -606 18 -37 21 -57 17 -135 -2 -51 -7 -98 -11 -104 -11
-17 -2187 -19 -2235 -2 -38 13 -50 32 -91 144 -83 226 -244 510 -391 690 -242
296 -546 524 -912 683 -450 196 -896 239 -1421 137 -70 -14 -142 -25 -161 -25
-50 0 -79 41 -116 163 -122 405 -273 669 -521 914 -180 177 -295 259 -513 368
-88 44 -162 86 -164 94 -5 14 3461 3489 3513 3522 17 10 41 19 55 19 20 0 261
-236 1163 -1137z m9452 -2613 c208 -17 375 -61 550 -144 405 -193 701 -512
860 -929 60 -156 98 -187 257 -207 93 -11 245 -52 343 -91 41 -17 64 -33 76
-54 13 -22 25 -106 48 -335 38 -377 49 -545 57 -882 l7 -263 -26 -30 -25 -30
-3436 0 c-2771 0 -3437 2 -3448 13 -17 17 4 77 82 237 298 612 902 1044 1595
1140 158 22 449 16 615 -14 131 -23 312 -68 448 -111 109 -35 147 -38 162 -11
5 11 19 85 30 165 45 321 135 580 278 801 194 301 521 554 861 665 155 50 294
74 526 88 11 1 74 -3 140 -8z m-14512 -29 c572 -133 1031 -551 1218 -1110 26
-79 50 -186 75 -331 20 -118 40 -226 45 -239 9 -22 14 -23 57 -18 26 3 106 24
177 47 294 92 389 109 660 116 239 7 375 -6 566 -55 286 -72 571 -216 809
-408 89 -72 267 -254 331 -338 114 -149 289 -465 305 -552 6 -29 3 -34 -21
-43 -18 -7 -1128 -9 -3445 -8 -3219 3 -3420 4 -3436 20 -14 14 -19 41 -22 130
-12 309 63 1297 105 1385 9 20 30 40 57 52 82 40 306 99 443 117 89 11 104 27
156 161 143 365 347 627 641 825 208 139 428 223 687 263 140 21 475 13 592
-14z m8019 -318 c135 -137 249 -257 252 -269 4 -14 -10 -47 -48 -110 -30 -50
-67 -126 -82 -170 -23 -70 -26 -90 -22 -174 4 -72 12 -111 32 -159 14 -36 24
-72 21 -80 -3 -9 -225 -236 -495 -506 -396 -396 -492 -487 -502 -477 -10 10
-13 192 -13 881 0 1003 -14 894 119 937 178 57 295 144 391 290 42 63 61 84
78 84 16 0 94 -72 269 -247z m1420 -1421 c301 -300 378 -383 378 -403 0 -16
-36 -80 -92 -165 -125 -187 -173 -286 -273 -558 -14 -37 -25 -51 -51 -62 -28
-12 -212 -14 -1122 -14 -993 0 -1091 1 -1103 16 -21 26 -24 145 -5 185 24 51
1194 1216 1230 1225 19 4 53 -1 101 -16 151 -47 283 -14 434 110 48 39 83 60
100 60 21 0 100 -75 403 -378z m7240 -1519 c10 -80 -11 -597 -27 -663 -9 -36
-22 -95 -29 -131 -7 -36 -16 -71 -20 -78 -14 -23 -52 -9 -175 62 -528 309
-848 455 -1091 498 -84 14 -235 1 -235 -21 0 -21 96 -94 252 -191 119 -74 766
-458 1065 -633 54 -31 103 -66 109 -78 17 -32 6 -116 -46 -343 -25 -110 -57
-258 -71 -330 -21 -109 -83 -320 -151 -513 -20 -58 -51 -72 -156 -72 -100 0
-186 23 -268 73 -31 18 -238 182 -460 363 -1458 1190 -1942 1560 -2216 1696
l-106 53 -151 3 c-131 3 -149 2 -136 -11 75 -71 790 -652 1995 -1622 313 -252
591 -480 619 -507 l49 -48 -849 0 c-643 0 -862 3 -903 13 l-54 12 -411 445
c-937 1014 -1350 1444 -1526 1583 -143 114 -240 150 -310 114 -52 -27 -21
-101 114 -266 83 -102 200 -231 646 -710 212 -228 546 -588 743 -800 l359
-386 -632 -3 c-547 -2 -637 0 -663 13 -16 8 -38 15 -47 15 -11 0 -158 211
-441 633 -587 877 -760 1121 -932 1318 -116 133 -210 199 -280 199 -79 0 -71
-57 33 -239 93 -161 198 -323 769 -1181 273 -409 497 -748 499 -752 2 -4 -218
-8 -490 -8 -460 0 -496 1 -528 18 -31 17 -59 71 -345 654 -394 804 -582 1159
-732 1385 -65 100 -117 136 -185 131 -42 -3 -43 -4 -46 -41 -6 -69 57 -259
170 -514 33 -76 222 -466 420 -868 l359 -730 -21 -17 c-20 -17 -54 -18 -400
-18 -351 0 -381 1 -421 19 l-42 19 -213 709 c-338 1131 -405 1318 -506 1408
-33 30 -45 35 -89 35 -50 0 -87 -12 -101 -34 -18 -27 -2 -101 93 -411 185
-607 360 -1178 429 -1400 37 -121 71 -236 74 -255 3 -19 9 -47 12 -62 l6 -28
-378 0 c-357 1 -380 2 -402 20 -21 17 -30 67 -122 682 -163 1081 -200 1287
-256 1404 -30 64 -62 84 -132 84 -73 0 -86 -19 -90 -135 -6 -151 20 -344 189
-1389 l102 -629 -23 -19 c-20 -17 -47 -18 -345 -18 -303 0 -324 1 -346 19
l-24 19 3 819 c4 1012 -6 1229 -60 1299 -19 23 -26 26 -67 21 -148 -17 -171
-200 -171 -1408 0 -481 -3 -696 -11 -718 -7 -19 -22 -36 -36 -42 -13 -5 -165
-9 -338 -9 -272 0 -316 2 -329 16 -20 19 -20 5 8 186 13 84 31 209 41 278 9
69 43 292 76 495 104 645 129 833 129 995 0 161 -26 220 -99 220 -47 0 -106
-17 -120 -34 -6 -8 -23 -92 -37 -187 -13 -96 -79 -500 -144 -899 -176 -1059
-172 -1040 -226 -1060 -30 -12 -744 -14 -744 -2 0 4 10 36 21 72 11 36 61 205
110 375 50 171 137 463 194 650 167 548 257 880 272 1002 8 68 -4 83 -67 83
-45 0 -51 -3 -85 -42 -126 -147 -254 -491 -585 -1578 l-164 -536 -33 -17 c-30
-15 -75 -17 -438 -17 -343 0 -405 2 -405 14 0 8 -5 16 -11 18 -6 2 164 353
390 807 496 991 571 1153 587 1275 8 52 -12 76 -62 76 -50 0 -84 -21 -150 -94
-138 -151 -328 -505 -894 -1666 -106 -217 -201 -403 -212 -412 -19 -17 -59
-18 -524 -18 -277 0 -504 3 -504 6 0 8 337 515 891 1340 425 633 513 775 507
816 -3 21 -9 23 -71 26 -84 4 -119 -12 -205 -92 -163 -153 -385 -464 -1178
-1654 l-269 -404 -55 -19 c-51 -18 -90 -19 -682 -19 l-628 0 17 28 c15 23 279
306 1383 1482 388 413 513 573 495 631 -8 24 -75 42 -125 34 -115 -19 -307
-188 -804 -705 -339 -353 -714 -749 -1103 -1165 l-261 -281 -59 -12 c-44 -9
-277 -12 -897 -12 l-838 0 59 58 c57 57 342 290 1718 1397 858 690 839 674
848 691 14 25 -1 32 -86 39 -109 9 -178 -5 -292 -60 -245 -117 -587 -381
-2233 -1718 -238 -194 -453 -363 -479 -377 -45 -24 -56 -25 -192 -23 -79 1
-147 5 -152 10 -21 21 -192 636 -244 878 -52 242 -63 331 -45 362 10 17 108
79 285 182 701 407 994 586 1062 649 41 37 45 44 32 57 -22 22 -125 38 -204
31 -146 -12 -344 -87 -590 -226 -72 -40 -206 -115 -300 -166 -93 -50 -201
-110 -240 -133 -110 -64 -126 -57 -140 65 -3 32 -13 102 -20 154 -15 100 -65
586 -65 633 l0 27 9679 0 9679 0 4 -37z m-592 -2802 c17 -5 26 -15 27 -31 2
-14 -48 -149 -110 -300 -91 -223 -117 -277 -137 -287 -20 -10 -1768 -13 -8830
-13 -5723 0 -8817 3 -8839 10 -50 14 -86 54 -112 124 -12 33 -49 126 -82 206
-106 258 -112 285 -59 293 47 7 18116 5 18142 -2z m911 -960 c19 -23 19 -66
19 -1847 l0 -1823 -24 -28 -24 -28 -9965 -3 c-9052 -2 -9967 -1 -9981 14 -14
14 -16 194 -16 1838 0 1251 3 1833 11 1853 5 17 20 35 32 41 15 8 2967 10
9975 9 l9954 -2 19 -24z m-15530 -4078 c36 -24 70 -43 76 -43 5 0 50 -25 99
-56 245 -155 544 -320 904 -498 1096 -542 2248 -883 3419 -1011 596 -65 1330
-72 1911 -19 1055 96 2046 347 3045 771 414 176 1247 609 1585 825 l115 73
547 3 c383 2 548 -1 548 -8 0 -6 -7 -13 -16 -17 -13 -5 -13 -7 -2 -15 10 -7
10 -10 -4 -18 -53 -32 -271 -180 -383 -260 -1005 -723 -2149 -1280 -3329
-1620 -199 -57 -559 -152 -686 -180 -243 -54 -848 -146 -1175 -179 -417 -42
-519 -46 -1085 -46 -644 0 -737 5 -1390 76 -406 44 -575 72 -940 155 -1271
291 -2461 787 -3475 1448 -243 159 -435 290 -541 371 -109 84 -354 285 -354
291 0 2 240 3 533 2 l533 -3 65 -42z m10514 24 c-102 -70 -463 -271 -710 -397
-1036 -525 -2155 -845 -3340 -954 -597 -56 -1287 -56 -1865 0 -1242 118 -2413
470 -3555 1067 -156 81 -508 279 -524 293 -2 2 2250 4 5005 4 4201 0 5005 -2
4989 -13z"/>
<path d="M6264 15617 c-2 -7 -3 -62 -2 -123 l3 -109 39 -3 c49 -4 56 6 56 90
l0 67 78 3 77 3 3 43 3 42 -126 0 c-95 0 -127 -3 -131 -13z m226 -32 c0 -11
-18 -15 -82 -17 l-83 -3 -3 -77 c-4 -111 -22 -97 -22 17 l0 95 95 0 c77 0 95
-3 95 -15z"/>
<path d="M6997 15623 c-11 -11 -8 -58 5 -71 7 -7 42 -12 85 -12 l73 0 0 -81 0
-80 43 3 42 3 3 123 3 122 -124 0 c-68 0 -127 -3 -130 -7z m223 -118 c0 -78
-3 -95 -15 -95 -12 0 -15 16 -15 80 l0 79 -82 3 c-54 2 -83 7 -86 16 -3 9 21
12 97 12 l101 0 0 -95z"/>
<path d="M6404 15487 c-2 -7 -3 -67 -2 -133 l3 -119 127 -3 c151 -3 140 -15
136 153 l-3 110 -128 3 c-99 2 -129 0 -133 -11z m236 -122 l0 -105 -105 0
-105 0 0 105 0 105 105 0 105 0 0 -105z"/>
<path d="M6480 15365 l0 -56 53 3 52 3 0 50 0 50 -52 3 -53 3 0 -56z m80 0 c0
-20 -5 -25 -25 -25 -20 0 -25 5 -25 25 0 20 5 25 25 25 20 0 25 -5 25 -25z"/>
<path d="M6717 15494 c-4 -4 -7 -27 -7 -51 l0 -43 46 0 45 0 -3 48 c-3 46 -4
47 -38 50 -20 2 -39 0 -43 -4z m53 -44 c0 -11 -7 -20 -15 -20 -8 0 -15 9 -15
20 0 11 7 20 15 20 8 0 15 -9 15 -20z"/>
<path d="M6852 15368 l3 -133 125 0 125 0 0 130 0 130 -128 3 -128 3 3 -133z
m228 -3 l0 -106 -102 3 -103 3 -3 89 c-2 49 -1 95 2 103 4 10 31 13 106 13
l100 0 0 -105z"/>
<path d="M6924 15406 c-3 -8 -4 -31 -2 -52 l3 -39 53 -3 52 -3 0 55 0 56 -50
0 c-34 0 -52 -5 -56 -14z m76 -41 c0 -20 -5 -25 -25 -25 -20 0 -25 5 -25 25 0
20 5 25 25 25 20 0 25 -5 25 -25z"/>
<path d="M6714 15337 c-9 -24 1 -177 11 -177 6 0 11 35 13 80 2 62 6 80 17 80
12 0 15 -38 17 -232 l3 -233 135 0 135 0 3 73 3 72 -71 0 c-68 0 -70 -1 -70
-25 0 -16 -6 -25 -15 -25 -11 0 -15 12 -15 45 l0 45 100 0 100 0 0 -110 0
-110 -169 0 -170 0 -3 53 c-4 73 -23 61 -23 -15 l0 -63 195 0 195 0 0 135 0
135 -125 0 -125 0 -3 -67 -3 -68 46 0 c41 0 45 2 45 25 0 23 4 25 40 25 l40 0
0 -50 0 -50 -110 0 -110 0 0 235 0 235 -40 0 c-25 0 -43 -5 -46 -13z"/>
<path d="M6404 15176 c-3 -8 -4 -27 -2 -43 3 -27 5 -28 63 -28 l60 0 0 40 0
40 -58 3 c-43 2 -59 -1 -63 -12z m96 -31 c0 -10 -11 -15 -35 -15 -24 0 -35 5
-35 15 0 10 11 15 35 15 24 0 35 -5 35 -15z"/>
<path d="M6574 15176 c-3 -8 -4 -27 -2 -43 3 -25 7 -28 46 -31 l42 -3 0 45 0
46 -40 0 c-26 0 -43 -5 -46 -14z m66 -31 c0 -8 -9 -15 -20 -15 -11 0 -20 7
-20 15 0 8 9 15 20 15 11 0 20 -7 20 -15z"/>
<path d="M6850 15145 l0 -45 131 0 130 0 -3 43 -3 42 -127 3 -128 3 0 -46z
m230 0 c0 -12 -18 -15 -100 -15 -82 0 -100 3 -100 15 0 12 18 15 100 15 82 0
100 -3 100 -15z"/>
<path d="M6710 15040 c0 -20 5 -30 15 -30 10 0 15 10 15 30 0 20 -5 30 -15 30
-10 0 -15 -10 -15 -30z"/>
<path d="M6407 15054 c-4 -4 -7 -62 -7 -130 0 -102 3 -123 16 -128 9 -3 64 -6
124 -6 80 0 111 4 119 14 8 9 11 54 9 132 l-3 119 -126 3 c-69 1 -128 -1 -132
-4z m231 -126 l-3 -103 -102 -3 -103 -3 0 106 0 105 105 0 106 0 -3 -102z"/>
<path d="M6482 14928 l3 -53 50 0 50 0 0 50 0 50 -53 3 -53 3 3 -53z m78 -3
c0 -20 -5 -25 -25 -25 -20 0 -25 5 -25 25 0 20 5 25 25 25 20 0 25 -5 25 -25z"/>
<path d="M7167 14903 c-4 -3 -7 -41 -7 -84 l0 -78 -82 -3 -83 -3 0 -40 0 -40
98 0 c121 0 132 19 12 23 -65 2 -85 6 -85 17 0 11 19 15 83 17 l82 3 3 78 c2
59 6 77 17 77 12 0 15 -17 15 -81 0 -60 3 -80 13 -77 18 6 23 178 5 190 -16 9
-62 11 -71 1z"/>
<path d="M6265 14887 c-3 -7 -4 -62 -3 -123 l3 -109 125 0 125 0 0 40 0 40
-77 3 -77 3 -3 77 -3 77 -43 3 c-29 2 -44 -1 -47 -11z m55 -81 c0 -96 0 -96
91 -96 64 0 79 -3 79 -15 0 -12 -17 -15 -95 -15 l-95 0 0 95 c0 57 4 95 10 95
6 0 10 -28 10 -64z"/>
<path d="M19447 11913 c-4 -3 -7 -59 -7 -124 0 -117 0 -119 24 -125 55 -13 61
-5 64 84 l3 82 79 0 80 0 0 45 0 45 -118 0 c-65 0 -122 -3 -125 -7z m213 -38
c0 -11 -18 -15 -77 -17 l-78 -3 -3 -77 c-2 -60 -6 -78 -17 -78 -12 0 -15 18
-15 95 l0 95 95 0 c77 0 95 -3 95 -15z"/>
<path d="M20177 11913 c-4 -3 -7 -24 -7 -45 l0 -38 80 0 80 0 0 -80 c0 -76 1
-80 24 -86 59 -14 61 -10 64 129 l3 127 -119 0 c-65 0 -122 -3 -125 -7z m213
-118 c0 -77 -3 -95 -15 -95 -11 0 -15 18 -17 78 l-3 77 -77 3 c-60 2 -78 6
-78 17 0 12 18 15 95 15 l95 0 0 -95z"/>
<path d="M19580 11650 l0 -130 130 0 130 0 0 130 0 130 -130 0 -130 0 0 -130z
m230 -5 l0 -105 -100 0 -100 0 0 105 0 105 100 0 100 0 0 -105z"/>
<path d="M19662 11648 l3 -53 47 -3 c43 -3 48 -1 53 21 4 14 5 38 3 53 -3 27
-6 29 -56 32 l-53 3 3 -53z m68 -3 c0 -18 -5 -25 -20 -25 -15 0 -20 7 -20 25
0 18 5 25 20 25 15 0 20 -7 20 -25z"/>
<path d="M19890 11730 l0 -51 43 3 42 3 0 45 0 45 -42 3 -43 3 0 -51z m60 0
c0 -11 -7 -20 -15 -20 -8 0 -15 9 -15 20 0 11 7 20 15 20 8 0 15 -9 15 -20z"/>
<path d="M20024 11767 c-2 -7 -3 -65 -2 -128 l3 -114 130 0 130 0 0 125 0 125
-128 3 c-99 2 -129 0 -133 -11z m234 -119 l-3 -103 -102 -3 -103 -3 0 106 0
105 105 0 106 0 -3 -102z"/>
<path d="M20102 11648 l3 -53 50 0 50 0 3 53 3 52 -56 0 -56 0 3 -52z m78 -3
c0 -20 -5 -25 -25 -25 -20 0 -25 5 -25 25 0 20 5 25 25 25 20 0 25 -5 25 -25z"/>
<path d="M19890 11529 c0 -76 3 -100 13 -97 8 3 13 32 15 86 2 64 6 82 17 82
13 0 15 -35 15 -230 l0 -230 135 0 135 0 0 75 0 76 -62 -3 c-57 -3 -63 -5 -66
-25 -2 -15 -10 -23 -23 -23 -16 0 -19 7 -19 40 l0 40 105 0 105 0 0 -110 0
-110 -169 0 -170 0 -3 52 c-2 31 -8 53 -16 56 -10 3 -12 -12 -10 -65 l3 -68
175 -3 c96 -1 185 0 198 3 22 5 23 7 20 138 l-3 132 -127 3 -128 3 0 -71 0
-71 43 3 c35 2 43 7 45 26 3 18 10 22 43 22 l39 0 0 -45 0 -45 -110 0 -110 0
0 230 0 230 -45 0 -45 0 0 -101z"/>
<path d="M19582 11428 l3 -43 58 -3 57 -3 0 46 0 45 -61 0 -60 0 3 -42z m98
-3 c0 -10 -11 -15 -35 -15 -24 0 -35 5 -35 15 0 10 11 15 35 15 24 0 35 -5 35
-15z"/>
<path d="M19752 11428 c3 -43 3 -43 46 -46 l42 -3 0 45 0 46 -46 0 -45 0 3
-42z m58 -3 c0 -8 -7 -15 -15 -15 -8 0 -15 7 -15 15 0 8 7 15 15 15 8 0 15 -7
15 -15z"/>
<path d="M20030 11425 l0 -46 128 3 127 3 0 40 0 40 -127 3 -128 3 0 -46z
m230 0 c0 -12 -18 -15 -105 -15 -87 0 -105 3 -105 15 0 12 18 15 105 15 87 0
105 -3 105 -15z"/>
<path d="M19897 11354 c-4 -4 -7 -20 -7 -36 0 -35 23 -34 28 1 4 25 -10 46
-21 35z"/>
<path d="M19580 11210 l0 -130 130 0 130 0 0 130 0 130 -130 0 -130 0 0 -130z
m230 0 l0 -100 -100 0 -100 0 0 100 0 100 100 0 100 0 0 -100z"/>
<path d="M19662 11208 l3 -53 41 -3 c50 -4 66 13 62 65 l-3 38 -53 3 -53 3 3
-53z m68 2 c0 -13 -7 -20 -20 -20 -13 0 -20 7 -20 20 0 13 7 20 20 20 13 0 20
-7 20 -20z"/>
<path d="M19447 11184 c-4 -4 -7 -61 -7 -126 l0 -118 126 0 125 0 -3 43 -3 42
-77 3 -77 3 -3 77 -3 77 -35 3 c-20 2 -39 0 -43 -4z m53 -104 l0 -80 80 0 c64
0 80 -3 80 -15 0 -12 -17 -15 -95 -15 l-95 0 0 95 c0 78 3 95 15 95 12 0 15
-16 15 -80z"/>
<path d="M20337 11183 c-4 -3 -7 -39 -7 -79 l0 -73 -77 -3 -78 -3 -3 -42 -3
-43 101 0 c77 0 101 3 98 13 -3 8 -32 13 -86 15 -64 2 -82 6 -82 17 0 12 17
15 80 15 l80 0 0 80 c0 63 3 80 15 80 11 0 15 -18 17 -82 2 -54 7 -83 16 -86
9 -3 12 21 12 97 l0 101 -38 0 c-21 0 -42 -3 -45 -7z"/>
<path d="M12490 11714 l0 -125 43 3 42 3 3 77 3 77 77 3 77 3 3 43 3 42 -125
0 -126 0 0 -126z m220 81 c0 -12 -16 -15 -80 -15 l-80 0 0 -80 c0 -64 -3 -80
-15 -80 -12 0 -15 17 -15 95 l0 95 95 0 c78 0 95 -3 95 -15z"/>
<path d="M13220 11795 l0 -45 80 0 80 0 0 -81 0 -80 43 3 42 3 3 123 3 122
-126 0 -125 0 0 -45z m220 -80 c0 -78 -3 -95 -15 -95 -12 0 -15 16 -15 80 l0
80 -80 0 c-64 0 -80 3 -80 15 0 12 17 15 95 15 l95 0 0 -95z"/>
<path d="M12632 11702 c-9 -6 -12 -40 -10 -133 l3 -124 130 0 130 0 0 130 0
130 -120 3 c-66 1 -126 -2 -133 -6z m228 -127 l0 -105 -105 0 -105 0 0 105 0
105 105 0 105 0 0 -105z"/>
<path d="M12704 11617 c-3 -8 -4 -32 -2 -53 l3 -39 53 -3 53 -3 -3 53 -3 53
-48 3 c-34 2 -49 -1 -53 -11z m76 -42 c0 -20 -5 -25 -25 -25 -20 0 -25 5 -25
25 0 20 5 25 25 25 20 0 25 -5 25 -25z"/>
<path d="M12937 11704 c-4 -4 -7 -27 -7 -51 l0 -43 46 0 45 0 -3 48 c-3 46 -4
47 -38 50 -20 2 -39 0 -43 -4z m53 -49 c0 -16 -6 -25 -15 -25 -9 0 -15 9 -15
25 0 16 6 25 15 25 9 0 15 -9 15 -25z"/>
<path d="M13074 11697 c-2 -7 -3 -67 -2 -133 l3 -119 125 0 125 0 0 130 0 130
-123 3 c-95 2 -124 0 -128 -11z m226 -122 l0 -105 -100 0 -100 0 0 105 0 105
100 0 100 0 0 -105z"/>
<path d="M13144 11616 c-3 -8 -4 -31 -2 -52 l3 -39 53 -3 52 -3 0 55 0 56 -50
0 c-34 0 -52 -5 -56 -14z m76 -41 c0 -18 -5 -25 -20 -25 -15 0 -20 7 -20 25 0
18 5 25 20 25 15 0 20 -7 20 -25z"/>
<path d="M12934 11547 c-9 -24 1 -177 11 -177 6 0 11 35 13 80 2 62 6 80 17
80 12 0 15 -38 17 -232 l3 -233 135 0 135 0 3 73 3 72 -71 0 c-68 0 -70 -1
-70 -25 0 -16 -6 -25 -15 -25 -11 0 -15 12 -15 45 l0 45 100 0 100 0 0 -110 0
-110 -169 0 -170 0 -3 53 c-4 73 -23 61 -23 -15 l0 -63 195 0 195 0 0 135 0
135 -105 3 c-154 4 -152 5 -148 -76 l3 -67 40 0 c34 0 40 3 43 23 3 18 10 22
43 22 l39 0 0 -45 0 -45 -110 0 -110 0 0 235 0 235 -40 0 c-25 0 -43 -5 -46
-13z"/>
<path d="M12630 11355 l0 -45 61 0 60 0 -3 43 -3 42 -57 3 -58 3 0 -46z m90 0
c0 -10 -11 -15 -35 -15 -24 0 -35 5 -35 15 0 10 11 15 35 15 24 0 35 -5 35
-15z"/>
<path d="M12800 11355 l0 -46 43 3 c42 3 42 3 42 43 0 40 0 40 -42 43 l-43 3
0 -46z m60 0 c0 -8 -9 -15 -20 -15 -11 0 -20 7 -20 15 0 8 9 15 20 15 11 0 20
-7 20 -15z"/>
<path d="M13077 11394 c-4 -4 -7 -25 -7 -46 l0 -38 131 0 130 0 -3 43 -3 42
-121 3 c-66 1 -123 -1 -127 -4z m223 -39 c0 -12 -18 -15 -100 -15 -82 0 -100
3 -100 15 0 12 18 15 100 15 82 0 100 -3 100 -15z"/>
<path d="M12932 11248 c2 -18 8 -33 13 -33 6 0 11 15 13 33 3 24 -1 32 -13 32
-12 0 -16 -8 -13 -32z"/>
<path d="M12624 11257 c-2 -7 -3 -67 -2 -133 l3 -119 130 0 130 0 0 130 0 130
-128 3 c-99 2 -129 0 -133 -11z m236 -122 l0 -105 -105 0 -105 0 0 105 0 105
105 0 105 0 0 -105z"/>
<path d="M12704 11176 c-3 -8 -4 -31 -2 -52 l3 -39 53 -3 52 -3 0 55 0 56 -50
0 c-34 0 -52 -5 -56 -14z m76 -41 c0 -20 -5 -25 -25 -25 -20 0 -25 5 -25 25 0
20 5 25 25 25 20 0 25 -5 25 -25z"/>
<path d="M12490 10985 l0 -126 123 3 122 3 3 43 3 42 -80 0 -80 0 -3 78 -3 77
-42 3 -43 3 0 -126z m60 15 l0 -80 80 0 c64 0 80 -3 80 -15 0 -12 -17 -15 -95
-15 l-95 0 0 95 c0 78 3 95 15 95 12 0 15 -16 15 -80z"/>
<path d="M13380 11030 l0 -80 -80 0 -80 0 0 -45 0 -46 95 3 c119 4 131 22 18
26 -64 2 -83 6 -83 17 0 11 19 15 78 17 l77 3 3 78 c2 58 6 77 17 77 11 0 15
-19 17 -82 4 -116 22 -105 26 15 l3 97 -46 0 -45 0 0 -80z"/>
<path d="M1690 6434 c-16 -40 -13 -726 3 -747 11 -15 28 -17 137 -15 l125 3 3
253 2 252 244 0 c209 0 247 2 260 16 20 20 23 233 4 252 -9 9 -109 12 -390 12
l-378 0 -10 -26z m700 -114 l0 -50 -243 0 c-176 0 -246 -3 -255 -12 -9 -9 -12
-79 -12 -255 l0 -243 -55 0 -55 0 0 305 0 305 310 0 310 0 0 -50z"/>
<path d="M4007 6453 c-13 -12 -8 -248 5 -261 9 -9 79 -12 255 -12 l243 0 0
-243 c0 -176 3 -246 12 -255 8 -8 51 -12 128 -12 77 0 120 4 128 12 17 17 17
749 0 766 -9 9 -109 12 -388 12 -207 0 -380 -3 -383 -7z m693 -388 l0 -305
-50 0 -50 0 0 239 c0 204 -2 242 -16 255 -13 14 -51 16 -260 16 l-244 0 0 50
0 50 310 0 310 0 0 -305z"/>
<path d="M17420 6453 c-8 -3 -18 -11 -22 -17 -4 -6 -8 -178 -8 -382 0 -275 3
-373 12 -382 8 -8 51 -12 130 -12 106 0 118 2 128 19 6 12 10 112 10 255 l0
236 236 0 c143 0 243 4 255 10 17 10 19 22 19 136 0 124 0 124 -26 134 -27 11
-707 13 -734 3z m670 -138 l0 -55 -243 0 c-176 0 -246 -3 -255 -12 -9 -9 -12
-79 -12 -255 l0 -243 -49 0 -50 0 -3 303 c-2 166 -2 305 0 310 2 4 140 7 308
7 l304 0 0 -55z"/>
<path d="M19730 6453 c-8 -3 -18 -11 -22 -17 -13 -19 -9 -231 4 -244 9 -9 79
-12 255 -12 l243 0 0 -243 c0 -224 2 -245 18 -260 15 -14 40 -17 128 -17 72 0
114 4 122 12 9 9 12 109 12 390 l0 378 -26 10 c-27 11 -707 13 -734 3z m678
-395 l2 -308 -55 0 -55 0 0 243 c0 176 -3 246 -12 255 -9 9 -79 12 -255 12
l-243 0 0 55 0 55 308 -2 307 -3 3 -307z"/>
<path d="M2137 6012 c-15 -17 -17 -59 -17 -403 0 -286 3 -388 12 -397 9 -9
113 -12 405 -12 378 0 393 1 403 19 6 13 10 157 10 399 0 354 -1 380 -18 395
-17 15 -59 17 -399 17 -355 0 -381 -1 -396 -18z m723 -402 l0 -330 -325 0
-325 0 0 330 0 330 325 0 325 0 0 -330z"/>
<path d="M2370 5761 c-5 -11 -10 -77 -10 -148 0 -180 -7 -173 175 -173 182 0
175 -6 175 167 0 67 -4 133 -10 147 l-10 26 -154 0 c-143 0 -156 -1 -166 -19z
m250 -151 l0 -80 -85 0 -85 0 0 80 0 80 85 0 85 0 0 -80z"/>
<path d="M3123 6020 c-22 -9 -23 -13 -23 -150 l0 -140 26 -10 c14 -6 68 -10
120 -10 132 0 134 3 134 160 0 158 -2 160 -137 159 -54 0 -108 -4 -120 -9z
m167 -150 l0 -70 -55 0 -55 0 0 70 0 70 55 0 55 0 0 -70z"/>
<path d="M3537 6013 c-4 -3 -7 -185 -7 -404 0 -353 2 -398 16 -403 9 -3 188
-6 399 -6 311 0 385 3 394 14 8 9 10 125 9 407 l-3 394 -401 3 c-220 1 -403
-1 -407 -5z m731 -400 l-3 -328 -327 -3 -328 -2 0 330 0 330 330 0 330 0 -2
-327z"/>
<path d="M3782 5768 c-8 -8 -12 -58 -12 -158 0 -100 4 -150 12 -158 15 -15
281 -17 309 -2 17 10 19 23 19 158 0 102 -4 152 -12 160 -8 8 -58 12 -158 12
-100 0 -150 -4 -158 -12z m238 -158 l0 -80 -80 0 -80 0 0 80 0 80 80 0 80 0 0
-80z"/>
<path d="M17836 5998 c-14 -19 -16 -74 -16 -393 0 -319 2 -374 16 -393 l15
-22 388 0 c288 0 390 3 399 12 9 9 12 113 12 405 0 378 -1 393 -19 403 -13 6
-157 10 -400 10 l-380 0 -15 -22z m734 -393 l0 -325 -330 0 -330 0 0 325 0
325 330 0 330 0 0 -325z"/>
<path d="M18093 5770 c-22 -9 -23 -13 -23 -164 0 -143 1 -156 19 -166 11 -5
80 -10 155 -10 109 0 138 3 150 16 13 13 16 42 16 159 0 182 7 175 -170 174
-69 0 -135 -4 -147 -9z m227 -165 l0 -85 -80 0 -80 0 0 85 0 85 80 0 80 0 0
-85z"/>
<path d="M18816 6004 c-13 -12 -16 -40 -16 -143 0 -85 4 -131 12 -139 8 -8 51
-12 128 -12 77 0 120 4 128 12 8 8 12 54 12 139 0 163 4 159 -140 159 -85 0
-112 -3 -124 -16z m174 -144 l0 -70 -50 0 -50 0 0 70 0 70 50 0 50 0 0 -70z"/>
<path d="M19248 6009 c-17 -9 -18 -39 -18 -402 0 -292 3 -396 12 -405 9 -9
111 -12 399 -12 l388 0 15 22 c14 19 16 74 16 393 0 319 -2 374 -16 393 l-15
22 -382 0 c-241 0 -388 -4 -399 -11z m722 -404 l0 -325 -330 0 -330 0 0 325 0
325 330 0 330 0 0 -325z"/>
<path d="M19492 5764 c-21 -14 -22 -22 -22 -158 0 -184 -8 -176 169 -176 73 0
141 5 152 10 17 10 19 23 19 165 0 142 -2 155 -19 165 -11 5 -77 10 -148 10
-100 0 -133 -3 -151 -16z m238 -159 l0 -85 -85 0 -85 0 0 85 0 85 85 0 85 0 0
-85z"/>
<path d="M13879 5638 c-8 -15 -10 -87 -7 -245 2 -123 3 -223 1 -223 -2 0 -21
9 -41 19 -129 66 -276 80 -371 36 -81 -38 -179 -143 -230 -246 -67 -137 -85
-269 -56 -431 20 -114 47 -182 104 -257 88 -118 213 -178 346 -168 80 6 135
25 219 76 l58 35 19 -23 c11 -13 19 -29 19 -37 0 -19 61 -29 178 -29 80 1 105
4 112 15 15 24 13 1473 -2 1488 -8 8 -61 12 -175 12 -156 0 -163 -1 -174 -22z
m-76 -699 c12 -6 32 -21 45 -32 21 -20 22 -26 22 -203 0 -101 -4 -194 -10
-208 -16 -43 -66 -66 -142 -66 -56 0 -71 4 -96 25 -58 49 -87 172 -72 307 11
93 31 131 85 164 44 26 129 33 168 13z"/>
<path d="M7100 5564 c-265 -57 -463 -304 -489 -611 -23 -270 37 -487 176 -634
77 -82 149 -127 258 -165 70 -24 95 -28 200 -28 129 0 199 14 303 60 81 36
125 69 149 112 19 35 20 55 22 331 1 249 -1 298 -14 318 l-15 23 -229 0 c-199
0 -230 -2 -242 -16 -10 -12 -14 -50 -14 -135 0 -146 6 -155 95 -151 81 3 90
-8 90 -107 0 -99 -13 -113 -105 -119 -82 -5 -128 11 -186 65 -74 69 -119 197
-119 338 1 232 113 409 274 431 36 5 57 0 125 -31 109 -49 121 -45 216 58 41
45 75 89 75 98 0 23 -79 93 -139 123 -107 55 -288 71 -431 40z"/>
<path d="M11105 5565 c-250 -46 -427 -211 -504 -470 -46 -154 -45 -386 4 -531
63 -189 215 -339 417 -412 67 -25 85 -27 218 -26 125 0 153 3 205 22 77 29
189 97 220 134 32 37 24 59 -47 136 -18 20 -45 52 -58 69 -36 49 -53 50 -128
4 -81 -49 -151 -65 -224 -51 -98 19 -169 77 -214 175 -71 156 -72 314 -1 468
73 161 231 233 362 165 114 -58 156 -48 249 58 36 41 66 84 66 94 0 40 -155
136 -266 165 -70 18 -202 18 -299 0z"/>
<path d="M3118 5549 c-17 -9 -18 -34 -18 -298 0 -311 1 -316 52 -309 l23 3 3
263 2 262 55 0 55 0 0 -724 0 -725 22 -15 c34 -24 792 -24 826 0 22 15 22 20
22 223 0 189 -2 209 -18 224 -16 15 -45 17 -196 17 -103 0 -185 -4 -197 -10
-16 -9 -19 -22 -19 -80 l0 -70 -55 0 -55 0 0 135 0 135 323 -2 322 -3 3 -342
2 -343 -545 0 -545 0 -2 163 c-3 161 -3 162 -26 165 -49 7 -52 -6 -52 -207 0
-132 4 -191 12 -199 17 -17 1209 -17 1226 0 17 17 17 819 0 836 -15 15 -764
17 -788 2 -12 -8 -16 -43 -18 -195 -4 -245 -10 -235 141 -235 75 0 117 4 125
12 7 7 12 40 12 80 l0 68 130 0 130 0 0 -150 0 -150 -345 0 -345 0 0 724 c0
645 -2 726 -16 740 -12 13 -38 16 -122 16 -59 0 -115 -5 -124 -11z"/>
<path d="M18810 5531 c-15 -29 -14 -573 2 -589 18 -18 56 -14 68 7 6 12 10
117 10 271 l0 251 53 -3 52 -3 5 -735 5 -735 414 -3 c297 -1 418 1 427 9 19
15 20 429 2 447 -8 8 -67 12 -199 12 -222 0 -219 1 -219 -96 l0 -64 -55 0 -55
0 0 135 0 135 325 0 325 0 0 -345 0 -345 -540 0 -540 0 0 153 c0 141 -2 155
-20 172 -17 15 -24 16 -45 7 l-25 -12 0 -194 c0 -183 1 -196 19 -206 13 -6
223 -10 614 -10 563 0 595 1 610 18 15 17 17 60 17 413 0 300 -3 399 -12 412
-12 16 -46 17 -408 15 l-395 -3 -3 -208 -2 -207 25 -10 c15 -6 69 -10 121 -10
120 0 134 11 134 100 l0 60 130 0 131 0 -3 -147 -3 -148 -347 -3 -348 -2 0
728 c0 553 -3 731 -12 740 -8 8 -51 12 -130 12 -106 0 -118 -2 -128 -19z"/>
<path d="M9657 5244 c-152 -37 -285 -143 -359 -287 -55 -108 -74 -306 -42
-431 50 -195 213 -349 413 -392 241 -51 502 61 608 261 50 96 67 166 67 290 0
172 -48 298 -156 411 -131 137 -339 195 -531 148z m200 -295 c81 -30 117 -111
117 -264 0 -84 -4 -109 -23 -153 -56 -126 -183 -159 -269 -70 -107 108 -88
422 28 480 39 20 105 23 147 7z"/>
<path d="M12283 5246 c-343 -83 -523 -495 -361 -826 65 -135 220 -252 377
-286 132 -28 271 -7 393 58 118 63 226 193 262 317 21 70 21 244 1 330 -49
205 -222 374 -419 410 -77 14 -187 13 -253 -3z m213 -302 c73 -35 110 -140
101 -286 -6 -121 -41 -193 -110 -227 -97 -48 -196 2 -231 119 -31 103 -17 276
27 342 43 63 139 87 213 52z"/>
<path d="M14933 5240 c-219 -57 -359 -195 -413 -406 -81 -314 89 -605 401
-690 95 -26 289 -24 394 5 89 23 204 76 211 96 6 15 -35 100 -78 163 -32 46
-51 51 -98 27 -47 -24 -179 -48 -232 -42 -53 7 -131 38 -162 65 -28 25 -76 93
-76 109 0 11 59 13 324 13 l325 0 28 24 c27 24 28 25 27 137 -2 177 -43 279
-159 389 -123 115 -311 157 -492 110z m237 -282 c56 -29 88 -78 72 -114 -11
-23 -17 -24 -99 -25 -140 -3 -227 2 -240 13 -22 17 -15 47 20 84 59 64 166 82
247 42z"/>
<path d="M8332 5230 c-154 -41 -263 -130 -331 -272 -119 -249 -83 -493 100
-679 132 -132 369 -189 604 -144 132 25 265 83 265 116 0 24 -66 138 -99 173
l-29 28 -93 -28 c-159 -48 -283 -32 -372 46 -50 44 -62 73 -40 95 12 13 64 15
328 15 377 0 358 -6 363 117 12 262 -133 477 -363 539 -74 20 -245 17 -333 -6z
m231 -261 c49 -13 117 -74 117 -104 0 -42 -18 -46 -186 -43 l-159 3 -3 32 c-3
25 4 39 32 67 52 52 120 67 199 45z"/>
<path d="M2142 5038 c-8 -8 -12 -51 -12 -128 0 -77 4 -120 12 -128 8 -8 63
-12 180 -12 155 0 168 1 178 19 5 11 10 67 10 125 0 82 -3 108 -16 120 -13 13
-44 16 -178 16 -113 0 -166 -4 -174 -12z m278 -128 l0 -50 -105 0 -105 0 0 50
0 50 105 0 105 0 0 -50z"/>
<path d="M2674 5025 c-22 -33 -17 -231 6 -245 23 -14 233 -13 248 2 17 17 17
239 0 256 -8 8 -50 12 -125 12 -109 0 -113 -1 -129 -25z m186 -115 l0 -50 -55
0 -55 0 0 50 0 50 55 0 55 0 0 -50z"/>
<path d="M3546 5034 c-23 -22 -23 -210 0 -242 l15 -22 383 0 c284 0 385 3 394
12 8 8 12 51 12 128 0 77 -4 120 -12 128 -9 9 -110 12 -394 12 -334 0 -385 -2
-398 -16z m724 -124 l0 -50 -325 0 -325 0 0 50 0 50 325 0 325 0 0 -50z"/>
<path d="M17842 5028 c-8 -8 -12 -51 -12 -130 0 -106 2 -118 19 -128 11 -5 86
-10 171 -10 85 0 160 5 171 10 17 10 19 22 19 128 0 79 -4 122 -12 130 -17 17
-339 17 -356 0z m278 -123 l0 -55 -105 0 -105 0 0 48 c0 27 3 52 7 55 3 4 51
7 105 7 l98 0 0 -55z"/>
<path d="M18382 5028 c-8 -8 -12 -51 -12 -130 0 -142 -4 -138 143 -138 136 0
137 1 137 139 0 145 4 141 -138 141 -79 0 -122 -4 -130 -12z m178 -123 l0 -55
-55 0 -55 0 0 48 c0 27 3 52 7 55 3 4 28 7 55 7 l48 0 0 -55z"/>
<path d="M19252 5028 c-8 -8 -12 -51 -12 -130 0 -106 2 -118 19 -128 13 -6
154 -10 390 -10 447 0 411 -12 411 141 0 55 -5 109 -10 120 -10 18 -25 19
-398 19 -289 0 -391 -3 -400 -12z m718 -123 l0 -55 -325 0 -325 0 0 48 c0 27
3 52 7 55 3 4 150 7 325 7 l318 0 0 -55z"/>
<path d="M3118 4679 c-15 -8 -18 -25 -18 -98 0 -101 12 -123 55 -103 24 11 25
16 25 101 0 79 -2 92 -19 101 -23 12 -22 12 -43 -1z"/>
<path d="M18812 4668 c-13 -13 -17 -166 -4 -184 15 -22 42 -24 63 -3 19 19 21
31 17 100 -2 57 -7 83 -18 89 -21 13 -44 12 -58 -2z"/>
<path d="M2143 4625 l-23 -16 0 -388 c0 -288 3 -390 12 -399 17 -17 789 -17
806 0 9 9 12 111 12 399 0 347 -2 388 -17 400 -13 11 -91 15 -392 17 -330 2
-379 1 -398 -13z m717 -405 l0 -330 -325 0 -325 0 0 330 0 330 325 0 325 0 0
-330z"/>
<path d="M2370 4371 c-5 -11 -10 -80 -10 -155 0 -109 3 -138 16 -150 13 -13
42 -16 157 -16 78 0 149 5 157 10 12 8 15 37 15 160 0 123 -3 152 -15 160 -8
5 -81 10 -162 10 -135 0 -148 -2 -158 -19z m250 -151 l0 -80 -85 0 -85 0 0 80
0 80 85 0 85 0 0 -80z"/>
<path d="M17836 4608 c-14 -19 -16 -74 -16 -393 0 -319 2 -374 16 -393 l15
-22 388 0 c288 0 390 3 399 12 9 9 12 113 12 405 0 378 -1 393 -19 403 -13 6
-157 10 -400 10 l-380 0 -15 -22z m734 -393 l0 -325 -330 0 -330 0 0 325 0
325 330 0 330 0 0 -325z"/>
<path d="M18077 4373 c-4 -3 -7 -75 -7 -159 0 -141 2 -154 19 -164 11 -5 80
-10 155 -10 109 0 138 3 150 16 13 13 16 42 16 158 0 97 -4 146 -12 154 -13
13 -309 18 -321 5z m243 -158 l0 -85 -80 0 -80 0 0 85 0 85 80 0 80 0 0 -85z"/>
<path d="M1703 4143 c-10 -4 -13 -91 -13 -388 0 -340 2 -384 16 -389 9 -3 181
-6 383 -6 272 0 370 3 379 12 19 19 16 232 -4 252 -13 14 -50 16 -254 16
l-239 0 -3 245 c-3 205 -5 247 -18 255 -15 10 -225 13 -247 3z m177 -326 c0
-176 3 -246 12 -255 9 -9 79 -12 255 -12 l243 0 0 -50 0 -50 -310 0 -310 0 0
305 0 305 55 0 55 0 0 -243z"/>
<path d="M4522 4138 c-9 -9 -12 -79 -12 -255 l0 -243 -243 0 c-176 0 -246 -3
-255 -12 -8 -8 -12 -51 -12 -128 0 -77 4 -120 12 -128 17 -17 589 -17 606 0
17 17 15 44 -4 62 -13 14 -52 16 -275 16 l-259 0 0 50 0 50 244 0 c209 0 247
2 260 16 14 13 16 51 16 255 l0 239 50 0 50 0 0 -246 c0 -150 4 -253 10 -265
13 -23 43 -25 64 -3 14 13 16 54 16 298 0 206 -3 285 -12 294 -8 8 -51 12
-128 12 -77 0 -120 -4 -128 -12z"/>
<path d="M20230 4130 c-19 -19 -20 -33 -20 -260 l0 -240 -243 0 c-176 0 -246
-3 -255 -12 -8 -8 -12 -51 -12 -128 0 -77 4 -120 12 -128 9 -9 90 -12 303 -12
306 0 315 1 315 45 0 43 -11 45 -282 45 l-258 0 0 50 0 50 239 0 c204 0 242 2
255 16 14 13 16 51 16 260 l0 245 53 -3 52 -3 5 -259 c4 -232 7 -260 23 -270
12 -8 22 -8 35 0 15 10 17 38 20 305 2 268 1 295 -15 307 -11 8 -53 12 -120
12 -90 0 -106 -3 -123 -20z"/>
<path d="M17396 4124 c-3 -9 -6 -181 -6 -383 0 -272 3 -370 12 -379 17 -17
749 -17 766 0 8 8 12 51 12 128 0 77 -4 120 -12 128 -9 9 -79 12 -255 12
l-243 0 0 243 c0 176 -3 246 -12 255 -8 8 -52 12 -134 12 -102 0 -123 -3 -128
-16z m184 -308 c0 -209 2 -247 16 -260 13 -14 51 -16 255 -16 l239 0 0 -34 c0
-19 3 -41 6 -50 6 -14 -25 -16 -305 -16 l-311 0 0 310 0 310 50 0 50 0 0 -244z"/>
</g>
</svg>
