<?xml version="1.0" encoding="UTF-8" standalone="no"?>
<svg
        xmlns:dc="http://purl.org/dc/elements/1.1/"
        xmlns:cc="http://creativecommons.org/ns#"
        xmlns:rdf="http://www.w3.org/1999/02/22-rdf-syntax-ns#"
        xmlns="http://www.w3.org/2000/svg"
        xmlns:sodipodi="http://sodipodi.sourceforge.net/DTD/sodipodi-0.dtd"
        xmlns:inkscape="http://www.inkscape.org/namespaces/inkscape"
        width="32"
        height="32"
        viewBox="0 0 32 32"
        version="1.1"
        id="svg22"
        sodipodi:docname="hero.svg"
        inkscape:version="0.92.4 5da689c313, 2019-01-14">
  <metadata
     id="metadata28">
    <rdf:RDF>
      <cc:Work
         rdf:about="">
        <dc:format>image/svg+xml</dc:format>
        <dc:type
           rdf:resource="http://purl.org/dc/dcmitype/StillImage" />
      </cc:Work>
    </rdf:RDF>
  </metadata>
  <defs
     id="defs26" />
  <sodipodi:namedview
     pagecolor="#ffffff"
     bordercolor="#666666"
     borderopacity="1"
     objecttolerance="10"
     gridtolerance="10"
     guidetolerance="10"
     inkscape:pageopacity="0"
     inkscape:pageshadow="2"
     inkscape:window-width="770"
     inkscape:window-height="480"
     id="namedview24"
     showgrid="false"
     inkscape:zoom="7.375"
     inkscape:cx="18.240903"
     inkscape:cy="9.0816883"
     inkscape:window-x="178"
     inkscape:window-y="106"
     inkscape:window-maximized="0"
     inkscape:current-layer="g20" />
  <g
     transform="translate(-549 -1527.82)"
     id="g20">
    <path
       fill="#25b39e"
       style="line-height:normal;text-indent:0;text-align:start;text-decoration-line:none;text-decoration-style:solid;text-decoration-color:#000;text-transform:none;block-progression:tb;isolation:auto;mix-blend-mode:normal"
       d="m 570.54688,1548.9358 c 0.70823,0.2845 1.05273,0.7184 1.05273,1.0918 0,0.2934 -0.19448,0.611 -0.64063,0.8867 -0.44614,0.2758 -1.11445,0.4668 -1.85937,0.4668 -0.74492,0 -1.41127,-0.191 -1.85741,-0.4668 -0.44615,-0.2757 -0.64259,-0.5933 -0.64259,-0.8867 0,-0.3727 0.34351,-0.8052 1.04884,-1.0898 0.35155,-0.5558 2.74986,-0.9567 2.89843,0 z"
       color="#000"
       font-family="sans-serif"
       font-weight="400"
       overflow="visible"
       white-space="normal"
       id="path2" />
    <path
       fill="#2b4255"
       d="m 570.72461,1547.969 a 0.50005,0.50005 0 0 0 -0.17773,0.9668 c 0.70823,0.2845 1.05273,0.7184 1.05273,1.0918 0,0.2934 -0.19448,0.611 -0.64063,0.8867 -0.44614,0.2758 -1.11445,0.4668 -1.85937,0.4668 -0.74492,0 -1.41127,-0.191 -1.85741,-0.4668 -0.44615,-0.2757 -0.64259,-0.5933 -0.64259,-0.8867 0,-0.3727 0.34351,-0.8052 1.04884,-1.0898 a 0.50005,0.50005 0 1 0 -0.37306,-0.9278 c -0.93455,0.3772 -1.67577,1.0895 -1.67577,2.0176 0,0.7306 0.47753,1.341 1.11719,1.7363 0.63963,0.3954 1.47088,0.6172 2.38281,0.6172 0.91193,0 1.74512,-0.2218 2.38476,-0.6172 0.63965,-0.3953 1.11524,-1.0057 1.11524,-1.7363 0,-0.9301 -0.7419,-1.6428 -1.67969,-2.0195 a 0.50005,0.50005 0 0 0 -0.19531,-0.039 z"
       color="#000"
       font-family="sans-serif"
       font-weight="400"
       overflow="visible"
       white-space="normal"
       style="line-height:normal;text-indent:0;text-align:start;text-decoration-line:none;text-decoration-style:solid;text-decoration-color:#000;text-transform:none;block-progression:tb;isolation:auto;mix-blend-mode:normal"
       id="path4" />
    <path
       fill="#f05542"
       d="m 572.6,1544.7658 c 0,1.8688 -3.5,5.6162 -3.5,5.6162 0,0 -3.5,-3.7474 -3.5,-5.6162 0,-1.8688 1.56701,-3.3838 3.5,-3.3838 1.933,0 3.5,1.515 3.5,3.3838 z"
       id="path6"
       style="fill:#e84b4b;fill-opacity:1" />
    <path
       fill="#2b4255"
       fill-rule="evenodd"
       d="m 574.51563,1539.344 0.46874,0.8262 0.74224,-0.4146 -0.51563,-0.8574 z m -2.6797,1.545 0.51367,0.8574 1.71485,-1.0293 -0.51563,-0.8574 z m -9.11528,9.0021 0.004,1 2,-0.01 -0.004,-1 z m -2.47265,2.1269 0.76563,0.6426 1.28515,-1.5332 -0.76562,-0.6406 z m -1.92774,2.2989 0.76759,0.6426 1.28319,-1.5313 -0.76562,-0.6426 z m -2.53711,0.8261 0.27735,0.961 1.92188,-0.5528 -0.27735,-0.9609 z m -2.49804,0.7168 0.27539,0.961 1.53711,-0.4414 -0.27539,-0.961 z"
       color="#000"
       font-family="sans-serif"
       font-weight="400"
       overflow="visible"
       white-space="normal"
       style="line-height:normal;text-indent:0;text-align:start;text-decoration-line:none;text-decoration-style:solid;text-decoration-color:#000;text-transform:none;block-progression:tb;isolation:auto;mix-blend-mode:normal"
       id="path8" />
    <circle
       cx="569.1"
       cy="1544.638"
       r="1"
       fill="#4bbfeb"
       id="circle10"
       style="fill:#b22424;fill-opacity:1" />
    <path
       fill="#f05542"
       d="m 557,1550.7658 c 0,1.8688 -3.5,5.6162 -3.5,5.6162 0,0 -3.5,-3.7474 -3.5,-5.6162 0,-1.8688 1.567,-3.3838 3.5,-3.3838 1.93299,0 3.5,1.515 3.5,3.3838 z"
       id="path12"
       style="fill:#e84b4b;fill-opacity:1" />
    <circle
       cx="553.5"
       cy="1550.638"
       r="1"
       fill="#4bbfeb"
       id="circle14"
       style="fill:#b22424;fill-opacity:1" />
    <path
       fill="#f05542"
       d="m 579,1533.7658 c 0,1.8688 -3.5,5.6162 -3.5,5.6162 0,0 -3.5,-3.7474 -3.5,-5.6162 0,-1.8688 1.567,-3.3838 3.5,-3.3838 1.93299,0 3.5,1.515 3.5,3.3838 z"
       id="path16"
       style="fill:#e84b4b;fill-opacity:1" />
    <circle
       cx="575.5"
       cy="1533.638"
       r="1"
       fill="#4bbfeb"
       id="circle18"
       style="fill:#b22424;fill-opacity:1" />
  </g>
</svg>
