<?xml version="1.0" encoding="UTF-8" standalone="no"?>
<!-- Generator: Adobe Illustrator 18.0.0, SVG Export Plug-In . SVG Version: 6.00 Build 0)  -->

<svg
		xmlns:dc="http://purl.org/dc/elements/1.1/"
		xmlns:cc="http://creativecommons.org/ns#"
		xmlns:rdf="http://www.w3.org/1999/02/22-rdf-syntax-ns#"
		xmlns="http://www.w3.org/2000/svg"
		xmlns:sodipodi="http://sodipodi.sourceforge.net/DTD/sodipodi-0.dtd"
		xmlns:inkscape="http://www.inkscape.org/namespaces/inkscape"
		version="1.1"
		id="Layer_1"
		x="0px"
		y="0px"
		viewBox="0 0 64 64"
		enable-background="new 0 0 64 64"
		xml:space="preserve"
		sodipodi:docname="tutorial_step_1.svg"
		inkscape:version="0.92.4 5da689c313, 2019-01-14"><metadata
   id="metadata33"><rdf:RDF><cc:Work
       rdf:about=""><dc:format>image/svg+xml</dc:format><dc:type
         rdf:resource="http://purl.org/dc/dcmitype/StillImage" /></cc:Work></rdf:RDF></metadata><defs
   id="defs31" /><sodipodi:namedview
   pagecolor="#ffffff"
   bordercolor="#666666"
   borderopacity="1"
   objecttolerance="10"
   gridtolerance="10"
   guidetolerance="10"
   inkscape:pageopacity="0"
   inkscape:pageshadow="2"
   inkscape:window-width="770"
   inkscape:window-height="480"
   id="namedview29"
   showgrid="false"
   inkscape:zoom="3.6875"
   inkscape:cx="32"
   inkscape:cy="32"
   inkscape:window-x="108"
   inkscape:window-y="30"
   inkscape:window-maximized="0"
   inkscape:current-layer="g26" />
<g
   id="g26">
	<g
   id="g6">
		<g
   id="g4">
			<path
   fill="#4CAF50"
   d="M32,0c17.7,0,32,14.3,32,32S49.7,64,32,64S0,49.7,0,32S14.3,0,32,0z"
   id="path2" />
		</g>
	</g>
	<g
   id="g12">
		<g
   id="g10">
			<path
   fill="#2896CE"
   d="M32.9,44c-0.3,0-0.6,0-0.9,0s-0.6,0-0.9,0c-9,0.1-16.1,2.3-16.1,5c0,2.8,7.6,5,17,5s17-2.2,17-5     C49,46.3,41.9,44.1,32.9,44z"
   id="path8" />
		</g>
	</g>
	<g
   id="g18">
		<g
   id="g16">
			<path
   fill="#E84B4B"
   d="M32,11c-6.6,0-12,5.5-12,12.3c0,7.1,8.3,13,11.1,20.8c0.6,1.6,0.9,3.2,0.9,5c0-1.8,0.3-3.4,0.9-5     C35.7,36.3,44,30.4,44,23.3C44,16.5,38.6,11,32,11z"
   id="path14" />
		</g>
	</g>
	<g
   id="g24">
		<g
   id="g22">
			<path
   fill="#B22424"
   d="M32,18c2.8,0,5,2.2,5,5c0,2.8-2.2,5-5,5s-5-2.2-5-5C27,20.2,29.2,18,32,18z"
   id="path20" />
		</g>
	</g>
</g>
</svg>